<svg xmlns="http://www.w3.org/2000/svg" width="189.814" height="114.992" viewBox="0 0 189.814 114.992">
  <path id="game" d="M189.815,2.764a2.78,2.78,0,0,0-2.78-2.757H164.416a2.78,2.78,0,0,0,0,5.561h16.438A80.619,80.619,0,0,0,168.326,26.7H51.353a2.78,2.78,0,0,0,0,5.561H166.326a81.035,81.035,0,0,0-3.791,22.84h-3.473a6.426,6.426,0,0,0-6.418,6.42V76.766a8.125,8.125,0,0,0-1.2.869,8.278,8.278,0,0,0-1.2-.869V61.516a6.426,6.426,0,0,0-6.418-6.42H136.45a6.426,6.426,0,0,0-6.418,6.42V76.766a8.125,8.125,0,0,0-1.2.869,8.278,8.278,0,0,0-1.2-.869V61.516a6.428,6.428,0,0,0-6.42-6.42h-7.368a6.426,6.426,0,0,0-6.418,6.42V76.766a8.123,8.123,0,0,0-1.2.869,8.279,8.279,0,0,0-1.2-.869V61.516a6.426,6.426,0,0,0-6.418-6.42H91.225a6.426,6.426,0,0,0-6.418,6.42V76.766a8.124,8.124,0,0,0-1.2.869,8.277,8.277,0,0,0-1.2-.869V61.516a6.428,6.428,0,0,0-6.42-6.42H68.614a6.428,6.428,0,0,0-6.42,6.42V76.766a8.277,8.277,0,0,0-1.2.869,8.124,8.124,0,0,0-1.2-.869V61.516a6.426,6.426,0,0,0-6.418-6.42H46a6.426,6.426,0,0,0-6.418,6.42V76.766a8.278,8.278,0,0,0-1.2.869,8.124,8.124,0,0,0-1.2-.869V61.516a6.426,6.426,0,0,0-6.418-6.42H27.286a81.087,81.087,0,0,0-3.793-22.84H38.379a2.78,2.78,0,0,0,0-5.561H21.492A80.653,80.653,0,0,0,8.965,5.568H151.44a2.78,2.78,0,1,0,0-5.561C-1.895.007,2.66-.022,2.248.058a2.779,2.779,0,0,0-2.24,2.55C0,2.773,0-1.816,0,112.214a2.78,2.78,0,0,0,2.78,2.78H187.035a2.781,2.781,0,0,0,2.78-2.78Zm-54.92,91.429a2.78,2.78,0,0,0,0,5.561h27.619v9.68H102.069v-9.68h19.85a2.78,2.78,0,1,0,0-5.561H18.546V90.645H171.273v3.548ZM87.75,99.754v9.68H27.3v-9.68ZM35.6,83.727v.918a.439.439,0,0,1-.439.439H18.985a.441.441,0,0,1-.44-.439v-.918a2.52,2.52,0,0,1,2.515-2.515H33.081A2.521,2.521,0,0,1,35.6,83.727Zm7.452-2.43a2.446,2.446,0,0,1,.624-.085H55.694a2.519,2.519,0,0,1,2.515,2.515v.918a.439.439,0,0,1-.439.439H41.6a.44.44,0,0,1-.44-.439v-.918A2.5,2.5,0,0,1,43.049,81.3Zm23.237-.085h12.02a2.519,2.519,0,0,1,2.515,2.515v.918a.439.439,0,0,1-.439.439H64.21a.441.441,0,0,1-.44-.439v-.918A2.522,2.522,0,0,1,66.286,81.211Zm21.988.085a2.446,2.446,0,0,1,.624-.085h12.021a2.519,2.519,0,0,1,2.515,2.515v.918a.439.439,0,0,1-.439.439H86.823a.44.44,0,0,1-.44-.439v-.918A2.5,2.5,0,0,1,88.274,81.3Zm23.237-.085h12.021a2.52,2.52,0,0,1,2.515,2.515v.918a.441.441,0,0,1-.44.439H109.435a.439.439,0,0,1-.439-.439v-.918A2.521,2.521,0,0,1,111.511,81.211Zm22.612,0h12.021a2.519,2.519,0,0,1,2.515,2.515v.918a.439.439,0,0,1-.439.439H132.048a.44.44,0,0,1-.44-.439v-.918A2.521,2.521,0,0,1,134.123,81.211Zm22.613,0h12.021a2.52,2.52,0,0,1,2.515,2.515v.918a.441.441,0,0,1-.44.439H154.659a.439.439,0,0,1-.439-.439v-.918A2.521,2.521,0,0,1,156.736,81.211Zm1.468-19.7a.858.858,0,0,1,.857-.857h7.368a.857.857,0,0,1,.857.857V75.65H158.2Zm-22.613,0a.858.858,0,0,1,.859-.857h7.368a.858.858,0,0,1,.857.857V75.65h-9.084Zm-22.612,0a.858.858,0,0,1,.857-.857h7.368a.857.857,0,0,1,.857.857V75.65H112.98Zm-22.613,0a.858.858,0,0,1,.857-.857h7.368a.857.857,0,0,1,.857.857V75.65H90.367Zm-22.612,0a.857.857,0,0,1,.857-.857H75.98a.858.858,0,0,1,.857.857V75.65H67.753V61.516Zm-22.613,0A.858.858,0,0,1,46,60.659h7.368a.857.857,0,0,1,.857.857V75.65H45.142Zm-13.529,0V75.65H22.53V61.516a.857.857,0,0,1,.857-.857h7.368A.857.857,0,0,1,31.613,61.516ZM5.563,10.209A75.052,75.052,0,0,1,16.846,30.09a2.783,2.783,0,0,0,.264.707,75.335,75.335,0,0,1,4.617,24.519,6.432,6.432,0,0,0-4.759,6.2V76.767a8.081,8.081,0,0,0-3.984,6.96v.918a5.969,5.969,0,0,0,.765,2.928,5.16,5.16,0,0,0-.765,2.711v19.149H5.563Zm12.983,99.224v-9.68h3.2v9.68Zm74.765,0v-9.68h3.2v9.68Zm74.765,0v-9.68h3.2v9.68Zm8.759,0V90.284a5.173,5.173,0,0,0-.765-2.711,5.965,5.965,0,0,0,.765-2.928v-.918a8.081,8.081,0,0,0-3.984-6.96V61.516a6.431,6.431,0,0,0-4.759-6.2A75.335,75.335,0,0,1,172.708,30.8a2.73,2.73,0,0,0,.264-.707,75.052,75.052,0,0,1,11.283-19.88v99.224Zm0,0" transform="translate(-0.001 -0.002)" fill="#707070" opacity="0.088"/>
</svg>
