<svg xmlns="http://www.w3.org/2000/svg" width="160.635" height="138.206" viewBox="0 0 160.635 138.206">
  <g id="hANnpl.tif" transform="translate(-824.389 -2335.618)" opacity="0.085">
    <g id="Grupo_863" data-name="Grupo 863" transform="translate(824.389 2335.618)">
      <path id="Trazado_562" data-name="Trazado 562" d="M904.378,2377.392a54.892,54.892,0,0,1,13.267-6.049,52.373,52.373,0,0,1,64.779,34.169,50.9,50.9,0,0,1-2.349,38,52.33,52.33,0,0,1-83.256,16.14,3.581,3.581,0,0,0-2.665-1.021q-32.734.037-65.469.019c-.591,0-1.183.013-1.773-.008-1.727-.062-2.524-.813-2.521-2.522.006-3.95.039-7.9.134-11.85a1.7,1.7,0,0,1,.766-1.282,6.706,6.706,0,0,1,2.6-.613c5.225-.007,10.449.078,15.674.111a9.626,9.626,0,0,0,2.567-.2,1.844,1.844,0,0,0,1-1.159c1.44-5.165,2.826-10.345,4.216-15.523q2.259-8.418,4.5-16.839,5.152-19.179,10.314-38.356,4.37-16.258,8.734-32.518c.485-1.8,1.042-2.253,2.866-2.259,4.364-.012,8.729.013,13.094-.013a2.428,2.428,0,0,1,2.693,1.968c1.555,5.84,3.139,11.673,4.707,17.509q2.857,10.633,5.709,21.266A10.6,10.6,0,0,0,904.378,2377.392Zm56.211,14.8-.029,0c.167-2.675.314-5.352.514-8.025a1.793,1.793,0,0,0-.821-1.834,48.559,48.559,0,0,0-21.5-8.391,2.214,2.214,0,0,0-2.323.922q-4.829,6.172-9.792,12.236a2.528,2.528,0,0,0-.482,2.6c1.142,4,2.241,8.023,3.224,12.069a2.033,2.033,0,0,0,1.419,1.739c2.053.688,4.1,1.388,6.135,2.134,3.15,1.156,6.273,2.387,9.438,3.5a2.3,2.3,0,0,0,1.74-.191q5.6-3.457,11.1-7.069a2.1,2.1,0,0,0,.8-1.4C960.263,2397.724,960.408,2394.955,960.589,2392.189Zm-54.072,26.039v.41c2,0,4-.067,5.992.027a2.491,2.491,0,0,0,2.284-1.1q5.032-6.264,10.172-12.442a2.182,2.182,0,0,0,.454-2.245c-1.24-4.164-2.4-8.352-3.679-12.506a2.424,2.424,0,0,0-1.263-1.366q-7.617-2.966-15.3-5.759a2.085,2.085,0,0,0-1.695.241,46.79,46.79,0,0,0-14.6,18.527,2.091,2.091,0,0,0,.153,1.713q4.518,6.815,9.185,13.531a2.4,2.4,0,0,0,1.622.921C902.063,2418.291,904.291,2418.229,906.517,2418.229Zm-5.31,39.312c.345-.088.477-.12.609-.156,5.369-1.5,10.744-2.98,16.1-4.541a2.265,2.265,0,0,0,1.235-1.247q2.293-5.967,4.419-12a2.273,2.273,0,0,0-.2-1.744q-4.5-6.992-9.142-13.888a2.36,2.36,0,0,0-1.628-.88c-4.22-.2-8.447-.27-12.669-.449a2.322,2.322,0,0,0-2.159,1.057q-4.806,6.277-9.71,12.478a1.912,1.912,0,0,0-.309,2.237c1,2.124,1.9,4.3,2.978,6.383a42.187,42.187,0,0,0,9.443,11.992A11.136,11.136,0,0,0,901.206,2457.54Zm79.525-35.9c-.321-2.885-.594-5.777-1.008-8.649a2.167,2.167,0,0,0-1.124-1.437c-5.089-2.073-10.208-4.075-15.338-6.046a1.949,1.949,0,0,0-1.505.067q-5.623,3.456-11.159,7.049a2.076,2.076,0,0,0-.89,1.368q-.485,8.5-.806,17.021a1.932,1.932,0,0,0,.617,1.367q5.026,4.189,10.147,8.261a1.927,1.927,0,0,0,1.468.314q8.115-2.087,16.194-4.315a1.968,1.968,0,0,0,1.1-1.161A51.233,51.233,0,0,0,980.731,2421.637Zm-23.684,31.088c.1-1.611.223-4.244.429-6.87a2.035,2.035,0,0,0-.856-1.969c-3.267-2.605-6.47-5.291-9.753-7.877a2.39,2.39,0,0,0-1.816-.409q-8.038,2.107-16.025,4.4a2.392,2.392,0,0,0-1.318,1.308q-2.252,5.846-4.32,11.763a2.378,2.378,0,0,0,.189,1.83c2.978,4.564,6.049,9.068,9.043,13.624a1.894,1.894,0,0,0,1.94.883,49.091,49.091,0,0,0,20.969-5.79,1.776,1.776,0,0,0,1.042-1.71C956.682,2459.187,956.848,2456.466,957.047,2452.725Zm-76.015-40.4c-.542-.059-.808-.112-1.075-.112-6.358-.005-12.717.02-19.074-.031a1.532,1.532,0,0,0-1.761,1.381c-2.389,9-4.823,17.991-7.24,26.984-.145.541-.254,1.091-.39,1.677h33.029A53.463,53.463,0,0,1,881.033,2412.323Zm18.022-36.921c-.1-.512-.142-.822-.223-1.123q-2.727-10.178-5.462-20.354c-1.145-4.255-2.318-8.5-3.429-12.767a1.287,1.287,0,0,0-1.5-1.15c-2.636.051-5.276.08-7.909-.01a1.707,1.707,0,0,0-2.06,1.517c-2.723,10.324-5.522,20.629-8.293,30.939-.253.944-.477,1.895-.74,2.948Zm-38.4,32.167a3.076,3.076,0,0,0,.553.2c6.683.015,13.365.038,20.047,0a1.45,1.45,0,0,0,1.056-.767c.931-2.351,1.638-4.8,2.67-7.1a51.582,51.582,0,0,1,14.35-18.8c.325-.269.634-.557,1.194-1.05-.66-.076-.957-.141-1.254-.141q-15-.007-30.006-.021c-.852,0-1.17.336-1.375,1.117q-2.062,7.844-4.2,15.667C862.7,2400.3,861.671,2403.912,860.652,2407.569Zm84.214,14.623h-.016c.115-2.542.26-5.083.314-7.625a1.624,1.624,0,0,0-.59-1.286c-1.863-.827-3.779-1.535-5.688-2.258-3.05-1.155-6.127-2.242-9.148-3.465-.738-.3-1.1-.272-1.585.34q-4.9,6.19-9.869,12.328a1.21,1.21,0,0,0-.095,1.68q4.342,6.521,8.608,13.094a1.174,1.174,0,0,0,1.559.569q7.473-2.108,14.98-4.093a1.355,1.355,0,0,0,1.147-1.525C944.567,2427.362,944.733,2424.778,944.866,2422.192Zm-116.035,31.94h62.713a52.869,52.869,0,0,1-3.4-5.3c-1.031-2.107-2.678-2.081-4.606-2.074q-21.95.075-43.9.021c-3.123,0-6.246-.112-9.369-.1-.482,0-1.368.39-1.379.633C828.788,2449.566,828.832,2451.821,828.832,2454.132Zm132.515,5.731A46.355,46.355,0,0,0,976,2441.745a5.707,5.707,0,0,0-.706.072c-4.07,1.066-8.121,2.208-12.216,3.166-1.224.286-1.467.845-1.478,1.935-.019,1.984-.2,3.967-.244,5.952C961.311,2455.122,961.347,2457.377,961.347,2459.864Zm16.556-53.371c-.745-5.267-8.845-17.861-12.442-19.544-.046.073-.129.143-.134.219-.285,4.395-.578,8.79-.815,13.188a1.3,1.3,0,0,0,.572,1.041C969.282,2403.106,973.5,2404.756,977.9,2406.493Zm-50.331,62.681a5.831,5.831,0,0,0-.314-.739c-2.368-3.549-4.758-7.084-7.1-10.648a1.324,1.324,0,0,0-1.74-.542c-2.22.656-4.449,1.275-6.674,1.913-1.983.568-3.964,1.144-6.306,1.82A48.406,48.406,0,0,0,927.572,2469.174Zm3.962-95.244-.195-.345a48.056,48.056,0,0,0-22.293,6.18,5.16,5.16,0,0,0,.7.435c4.033,1.53,8.06,3.076,12.119,4.532a1.682,1.682,0,0,0,1.415-.53c1.728-2.046,3.374-4.163,5.046-6.257Q929.933,2375.939,931.534,2373.93Zm-45.774,57.641c.294-.134.4-.148.452-.21,2.71-3.471,5.436-6.931,8.087-10.447a1.642,1.642,0,0,0-.047-1.5c-2.27-3.452-4.608-6.859-6.935-10.273a9.8,9.8,0,0,0-.755-.838A47.355,47.355,0,0,0,885.76,2431.571Z" transform="translate(-824.389 -2335.618)" fill="#707070"/>
    </g>
  </g>
</svg>
