<svg xmlns="http://www.w3.org/2000/svg" width="95.153" height="138.206" viewBox="0 0 95.153 138.206">
  <g id="soccer-field-corner-with-black-triangular-flag-in-the-angle" transform="translate(-152.642)" opacity="0.089">
    <g id="Grupo_835" data-name="Grupo 835" transform="translate(152.642)">
      <path id="Trazado_546" data-name="Trazado 546" d="M154.757,73.714h34.706a15.047,15.047,0,0,0,3.751,10.619c3.018,3.652,7.672,6.671,13.44,8.758a46.276,46.276,0,0,0,12.128,2.567L180.043,134.6a2.119,2.119,0,0,0,3,2.99l64.139-64.491a2.089,2.089,0,0,0,.606-1.579V2.115a2.115,2.115,0,0,0-4.231,0V69.484h-88.8a2.115,2.115,0,1,0,0,4.231Zm68.13,17.812c-.339.014-.677.014-1.015.014-10.069,0-20.519-4.019-25.4-9.9a10.743,10.743,0,0,1-2.764-7.926H240.6Z" transform="translate(-152.642)" fill="#707070"/>
      <path id="Trazado_547" data-name="Trazado 547" d="M535.292,38.223,566.3,56.444c.747.437,1.34.085,1.34-.762V19.2c0-.86-.607-1.2-1.34-.762L535.292,36.644A.842.842,0,0,0,535.292,38.223Z" transform="translate(-480.856 -15.673)" fill="#707070"/>
    </g>
  </g>
</svg>
