<svg xmlns="http://www.w3.org/2000/svg" width="195.347" height="103.992" viewBox="0 0 195.347 103.992">
  <path id="net" d="M196.1,17.947A3.151,3.151,0,0,0,193.2,16H4.151A3.162,3.162,0,0,0,1,19.151v97.673a3.151,3.151,0,0,0,4.559,2.836l12.6-6.3c.072-.038.126-.095.192-.135a3.053,3.053,0,0,0,1.55.451H177.442a3.053,3.053,0,0,0,1.55-.466c.066.041.12.1.192.135l12.6,6.3a3.151,3.151,0,0,0,4.559-2.82V19.151a3.182,3.182,0,0,0-.243-1.2ZM179.288,28.6H18.058l-6.3-6.3H185.59ZM48.261,34.9v9.452H38.809V34.9Zm15.754,0v9.452H54.563V34.9Zm15.754,0v9.452H70.317V34.9Zm15.754,0v9.452H86.07V34.9Zm15.754,0v9.452h-9.452V34.9Zm15.754,0v9.452h-9.452V34.9Zm15.754,0v9.452h-9.452V34.9Zm15.754,0v9.452h-9.452V34.9Zm18.9,0v9.452h-12.6V34.9Zm0,25.206h-12.6V50.658h12.6Zm0,15.754h-12.6V66.412h12.6ZM142.784,60.111h-9.452V50.658h9.452Zm6.3-9.452h9.452v9.452h-9.452ZM127.03,60.111h-9.452V50.658h9.452Zm-40.96,6.3h9.452v9.452H86.07Zm-6.3,9.452H70.317V66.412h9.452Zm22.055-9.452h9.452v9.452h-9.452Zm15.754,0h9.452v9.452h-9.452Zm-6.3-6.3h-9.452V50.658h9.452Zm-15.754,0H86.07V50.658h9.452Zm-15.754,0H70.317V50.658h9.452Zm-15.754,0H54.563V50.658h9.452Zm-15.754,0H38.809V50.658h9.452Zm-15.754,0H19.9V50.658h12.6Zm-12.6,6.3h12.6v9.452H19.9Zm18.9,0h9.452v9.452H38.809Zm15.754,0h9.452v9.452H54.563Zm9.452,15.754v9.452H54.563V82.166Zm6.3,0h9.452v9.452H70.317Zm15.754,0h9.452v9.452H86.07Zm15.754,0h9.452v9.452h-9.452Zm15.754,0h9.452v9.452h-9.452Zm15.754,0h9.452v9.452h-9.452Zm0-6.3V66.412h9.452v9.452Zm15.754-9.452h9.452v9.452h-9.452ZM32.508,44.357H19.9V34.9h12.6ZM19.9,82.166h12.6v9.452H19.9Zm18.9,0h9.452v9.452H38.809ZM48.261,97.92v9.452H38.809V97.92Zm6.3,0h9.452v9.452H54.563Zm15.754,0h9.452v9.452H70.317Zm15.754,0h9.452v9.452H86.07Zm15.754,0h9.452v9.452h-9.452Zm15.754,0h9.452v9.452h-9.452Zm15.754,0h9.452v9.452h-9.452Zm15.754,0h9.452v9.452h-9.452Zm0-6.3V82.166h9.452v9.452Zm15.754-9.452h12.6v9.452h-12.6ZM7.3,111.726V26.757l6.3,6.3v75.517ZM19.9,97.92h12.6v9.452H19.9Zm144.935,9.452V97.92h12.6v9.452Zm18.9,1.2V33.058l6.3-6.3v84.969Z" transform="translate(-1 -16)" fill="#707070" opacity="0.092"/>
</svg>
