<svg xmlns="http://www.w3.org/2000/svg" width="156.182" height="156.495" viewBox="0 0 156.182 156.495">
    <g id="prefix__accept" transform="translate(-.046)">
        <g id="prefix__Grupo_569" data-name="Grupo 569" transform="translate(.046)">
            <path id="prefix__Trazado_379" d="M58.947 154.073a7.541 7.541 0 0 0 11.353-.323c28.3-33.779 66.4-75.917 80.668-83.492a9.876 9.876 0 0 0 5.257-8.408V6.707A6.32 6.32 0 0 0 150.034 0a6.893 6.893 0 0 0-4.452 1.714c-10.642 8.869-61.8 53.093-78.829 97.032L50.477 72.291a8.253 8.253 0 0 0-10.833-2.717L3.71 90.477a7.04 7.04 0 0 0-1.152 11.569c7.422 6.592 45.028 40.054 56.389 52.027zM42.836 79.752l19.556 31.784a6.535 6.535 0 0 0 5.541 3.348 6.336 6.336 0 0 0 6.024-4.969c10.725-37.825 53.585-78.631 71.851-94.693v45.987c-18.952 10.34-64.817 63.665-81.48 83.464-11.9-12.009-39.144-36.43-51.528-47.447z" data-name="Trazado 379" transform="translate(-.046)" style="fill:#4dd4e2"/>
        </g>
    </g>
</svg>
