<svg xmlns="http://www.w3.org/2000/svg" width="85.249" height="36.746" viewBox="0 0 85.249 36.746">
  <g id="Grupo_580" data-name="Grupo 580" transform="translate(-4142.846 -698.06)">
    <path id="Trazado_406" data-name="Trazado 406" d="M4228.093,704.334a21.49,21.49,0,0,1-5.5,1.377c-5.306.2-10.72.012-16.08-.1-10.094-.2-20.177-.572-30.275-.651a97.239,97.239,0,0,0-13.294.782c-10.919,1.458-21.24-.716-20-4.469.2-.6,1.944-1.485,3.287-1.591,7.715-.61,15.5-1.131,23.314-1.462a65.67,65.67,0,0,1,12.454.26c8.08,1.339,15.949,1,24.1.521,3.991-.232,8.13-.3,12.143-.163C4224.864,699.072,4228.2,700.735,4228.093,704.334Z" fill="#4dd4e2"/>
    <path id="Trazado_407" data-name="Trazado 407" d="M4228.093,725.942a23.342,23.342,0,0,1-5.5,1.245c-5.306.184-10.72.011-16.08-.087-10.094-.185-20.177-.517-30.275-.588a107.564,107.564,0,0,0-13.294.707c-10.919,1.319-21.24-.647-20-4.04.2-.542,1.944-1.343,3.287-1.439,7.715-.551,15.5-1.023,23.314-1.322a72.6,72.6,0,0,1,12.454.235c8.08,1.21,15.949.9,24.1.472,3.991-.211,8.13-.274,12.143-.148C4224.864,721.185,4228.2,722.689,4228.093,725.942Z" transform="translate(0 -6.707)" fill="#4dd4e2"/>
    <path id="Trazado_408" data-name="Trazado 408" d="M4218.242,745.828a18.652,18.652,0,0,1-4.864,1.245c-4.693.185-9.48.011-14.221-.087-8.928-.185-17.845-.517-26.776-.588a84.163,84.163,0,0,0-11.758.708c-9.658,1.318-18.785-.648-17.685-4.04.175-.542,1.719-1.343,2.907-1.439,6.824-.551,13.706-1.023,20.62-1.321a56.885,56.885,0,0,1,11.014.235c7.146,1.21,14.106.9,21.314.472,3.53-.211,7.191-.274,10.74-.147C4215.386,741.072,4218.339,742.576,4218.242,745.828Z" transform="translate(0 -12.713)" fill="#4dd4e2"/>
  </g>
</svg>
