<svg xmlns="http://www.w3.org/2000/svg" width="88.739" height="77.036" viewBox="0 0 88.739 77.036">
  <g id="Grupo_578" data-name="Grupo 578" transform="translate(-3886.598 -370.042)">
    <path id="Trazado_401" data-name="Trazado 401" d="M3886.6,383.4c1.3-.57,2.572-1.526,3.914-1.643,5.564-.482,5.622-.386,6.071-6.1.155-1.963.722-3.487,2.76-4.05,2.838-.784,4.807,1.3,4.491,4.632-.192,2.029-.278,4.069-.458,6.83,6.161-5.048,12.452-4.116,18.687-4.133,4.34-.012,8.665-1.1,13.018-1.4,3.6-.255,7.235-.128,10.853-.079,4.574.063,9.151.136,13.717.375,2,.106,2.627-.46,2.559-2.52a14.985,14.985,0,0,1,1.044-4.741c.094-.308,1-.626,1.394-.5a1.593,1.593,0,0,1,.83,1.232,19.8,19.8,0,0,1-.342,3.348c-.387,2.393.5,3.294,3.007,3.5a22.81,22.81,0,0,1,6.285,1.953,2.079,2.079,0,0,1,.9,1.755,2.147,2.147,0,0,1-1.308,1.517,29.764,29.764,0,0,1-5.788.578c-2.971-.044-3.964.558-4.021,3.629-.072,3.865-.92,7.616-.472,11.615.564,5.023-.34,10.2-.4,15.307-.07,5.82.1,11.642.142,17.462.012,1.719.931,2.2,2.51,2.25a44.979,44.979,0,0,1,6.652.558c1.914.343,2.792,1.8,2.593,3.75-.153,1.49-.48,2.145-2.5,1.756a27.567,27.567,0,0,0-8.3.138c-.627.074-1.04,1.653-1.623,2.49s-1.12,1.942-1.947,2.3c-.44.19-1.437-.987-2.216-1.493-.9-.582-1.864-1.618-2.745-1.564-3.141.193-6.255,1.082-9.385,1.12-4.8.057-9.6-.4-14.405-.587-3.167-.127-6.342-.313-9.507-.229-5.709.151-11.42.395-17.114.819a4.72,4.72,0,0,0-3.133,1.833c-1.643,2.43-3.556,2.28-5.821,1.353.851-3.783.709-3.925-3.181-4.212-1.092-.08-2.528-.081-3.156-.74a5.125,5.125,0,0,1-1.426-3.6c.109-.985,1.373-2,2.352-2.675a4.78,4.78,0,0,1,2.462-.281c.823-.007,1.648.117,2.744.2-.385-2.767-.9-5.352-1.075-7.96-.347-5.182-.756-10.38-.687-15.566.107-7.982.558-15.959.944-23.935.1-2.059-.551-2.853-2.708-2.73a43.273,43.273,0,0,1-5.808-.407Zm49.424,53.541c5.319-.591,10.775-1.154,16.217-1.82,3.414-.419,4.92-2.051,5.248-5.315a19.368,19.368,0,0,1,.449-2.189c.991-4.505,2.394-8.987-.036-13.524-.314-.587.116-1.6.273-2.4.623-3.166,2.5-5.754,1.686-9.619-1.105-5.272-.3-10.934-.463-16.425a2.691,2.691,0,0,0-1.488-2.063,62.241,62.241,0,0,0-8.537-.825c-4.928-.121-9.873-.238-14.791.016-7.322.378-14.622,1.142-21.94,1.6a16.744,16.744,0,0,1-5.654-.545c-3.454-1.014-4.6-.289-4.641,3.39-.067,5.425.491,10.964-.421,16.247-1.412,8.186-.349,16.155.464,24.2.043.44.42.84.495,1.284a7.176,7.176,0,0,1,.27,2.894c-.83,2.927.227,4.321,3.308,4.27,1.957-.031,3.919.295,5.877.265,4.016-.061,8.033-.425,12.043-.341C3928.2,436.12,3932.008,436.614,3936.022,436.942Z" transform="translate(0 0)" fill="#4dd4e2"/>
    <path id="Trazado_402" data-name="Trazado 402" d="M3924.092,413.933c1.922-1.751,3.7-3.358,5.463-4.989.335-.31.81-.69.845-1.073.736-7.85,8.07-10.043,12.543-14.675a28.365,28.365,0,0,0,2.913-2.805c.985-1.376,2.071-2,3.515-1.039,1.5,1,1.283,2.5.253,3.651-2.268,2.53-4.649,4.964-7.062,7.359a68.208,68.208,0,0,0-13.819,20.756c-.936,2.07-1.928,2.217-3.9,1.123a28.41,28.41,0,0,1-9.985-9.6c-.513-.783-1.625-1.176-2.467-1.739-2.52-1.688-3.017-3.515-1.514-5.586a3.7,3.7,0,0,1,6-.5,87.931,87.931,0,0,1,6.148,7.524C3923.47,412.893,3923.818,413.518,3924.092,413.933Z" transform="translate(2.914 2.343)" fill="#4dd4e2"/>
  </g>
</svg>
