<svg xmlns="http://www.w3.org/2000/svg" xmlns:xlink="http://www.w3.org/1999/xlink" width="83.812" height="72.12" viewBox="0 0 83.812 72.12">
  <defs>
    <clipPath id="clip-path">
      <rect width="83.812" height="72.12" fill="none"/>
    </clipPath>
  </defs>
  <g id="Componente_502_1" data-name="Componente 502 – 1" clip-path="url(#clip-path)">
    <path id="Trazado_404" data-name="Trazado 404" d="M4093.981,466.715c-.606.153-.992.232-1.366.351-.265.085-.563.366-.754.3a.82.82,0,0,1-.417-.687c.555-1.737.263-3.66,1.425-5.3.559-.788.413-2.041.773-3.013a9.338,9.338,0,0,1,3.681-4.79c.454-.294.58-1.053,1-1.452,4.016-3.851,7.994-7.791,13.464-9.565,3.25-1.054,6.522-2.081,9.847-2.844a40.144,40.144,0,0,1,6.589-.679c3.7-.22,7.4-.454,11.108-.473a16.4,16.4,0,0,1,7.821,1.425.9.9,0,0,0,.733.042c2.015-1.179,3.5.34,5.16.971.656.25,1.326.466,1.973.737.723.3,1.43.648,2.141.982,1.374.647,2.741,1.307,4.12,1.943.268.123.645.074.855.245,1.691,1.38,3.37,2.678,3.429,5.266.019.774-.019,2.491,1.816,2.54.429.011.95.823,1.229,1.369.857,1.676,1.628,3.4,2.4,5.114a1.908,1.908,0,0,1,.036.807c-.009.245-.172.6-.063.714.814.845.574,2.041.966,2.912.792,1.759-.447,3.333-.007,4.976.035.133-.309.368-.428.5.212.392.619.826.525,1.043-.15.345-.634.544-1.093.893.152.511,1.908,1.154.056,1.8.252,1.6.546,3.012-.487,4.537-.838,1.238-1.033,2.913-1.522,4.42l-.99-1.117c-.164.314-.256.412-.234.459.551,1.24.03,2.05-.7,3.143-.854,1.278-2.263,2.33-2.313,4.177-.016.617-.806,1.282-1.359,1.8-1.341,1.254-2.745,2.443-4.139,3.64a10.669,10.669,0,0,1-1.153.8c-1.123.73-2.272,1.423-3.368,2.191-.589.413-1.037.86-1.833.286-.229-.165-.9.2-1.326.41-.983.5-1.9,1.141-2.919,1.547a1.968,1.968,0,0,1-1.407-.365c-.713-.426-1.37-.559-1.727.293-.417,1-1.1.692-1.827.625a2.674,2.674,0,0,0-1.5.228c-.955.558-1.5.428-1.808-.442a15.433,15.433,0,0,1-3.293.165c-1.856-.3-3.4.594-5.053,1.034-.647.172-1.2.663-1.842.9-.248.094-.6-.1-.912-.166.166-.246.275-.608.506-.72a18.33,18.33,0,0,1,6.891-1.656,72.391,72.391,0,0,0,9.344-1.108,28.847,28.847,0,0,0,5.507-2.195c1.071-.462,2.067-1.111,3.158-1.511a16.117,16.117,0,0,0,8.691-7.972c1.477-2.724,3.153-5.346,4.5-8.13a27.034,27.034,0,0,0,1.446-4.956,25.633,25.633,0,0,0,.407-9.542A18.985,18.985,0,0,0,4168,457.18a43.082,43.082,0,0,0-5.867-8.647,14,14,0,0,0-6.669-4.273c-1.514-.471-2.944-1.208-4.446-1.727a11.146,11.146,0,0,0-2.16-.333,3.208,3.208,0,0,1-1.025-.113c-3.039-1.637-6.241-.826-9.4-.686-3.6.159-7.2.273-10.8.422-1.769.073-3.535.221-5.3.255-1.086.021-2.175-.142-3.264-.152a1.925,1.925,0,0,0-1.183.5c-1.189-.589-1.805.5-2.616.952-1.014.56-1.98,1.219-3.028,1.7a48.994,48.994,0,0,0-10.983,7.554C4096.747,456.466,4095.311,461.619,4093.981,466.715Z" transform="translate(-4089.875 -437.059)" fill="#4dd4e2" stroke="#4dd4e2" stroke-width="3"/>
    <path id="Trazado_405" data-name="Trazado 405" d="M4126.35,530.493l-2.666,3.883-.317-.068a7.291,7.291,0,0,1-.056-1.317c.183-1.357.42-2.706.636-4.058.007-.042.029-.113.014-.123-1.377-.871-.749-2.691-1.711-3.693a8.9,8.9,0,0,0-2.453-1.713c-2.229-1.106-4.469-2.21-6.781-3.121-3.818-1.506-7.768-2.695-11.527-4.327-3.478-1.509-5.827-4.278-7.572-7.685a34.935,34.935,0,0,1-2.309-6.372c-.349-1.205-.588-2.416.406-3.558.342-.394.256-1.146.4-1.725.157-.615.36-1.218.543-1.826l.425.078a22.7,22.7,0,0,0,.21,2.826,69.05,69.05,0,0,0,1.782,7.969,17.453,17.453,0,0,0,2.572,4.153c1.125,1.632,2.3,3.25,4.274,3.968,1,.362,2.051.566,3.039.948,2.258.874,4.474,1.861,6.741,2.711,1.726.647,3.541,1.063,5.252,1.742a13.877,13.877,0,0,1,6.27,5.466c1.061,1.566,2.181,3.127,2.226,5.153C4125.757,530,4126.069,530.181,4126.35,530.493Z" transform="translate(-4089.813 -463.935)" fill="#4dd4e2" stroke="#4dd4e2" stroke-width="3"/>
  </g>
</svg>
