<svg xmlns="http://www.w3.org/2000/svg" width="1401.064" height="691.922" viewBox="0 0 1401.064 691.922">
  <g id="Sin_título-7" data-name="Sin título-7" transform="matrix(-0.326, 0.946, -0.946, -0.326, 1527.875, 136.506)" opacity="0.1">
    <path id="Trazado_380" data-name="Trazado 380" d="M478.091,178.278Q430.735,264.641,385.464,352.7L362.77,396.761l-5.673,11-2.856,5.5a31.085,31.085,0,0,0-2.123,5,27.967,27.967,0,0,0,1.7,20.8,21.788,21.788,0,0,0,2.74,4l3.86,4.35,7.719,8.751,15.438,17.452,30.875,35.005L658.6,789.968l15.438,17.553,7.719,8.8,3.86,4.4.926,1.1.656.55,1.273,1.25a8.953,8.953,0,0,0,10.961.45,15.679,15.679,0,0,0,4.554-5,19.285,19.285,0,0,0,2.084-6.6,20.41,20.41,0,0,0-.849-7.2,1.832,1.832,0,0,0-.27-1.05l-.5-1.5-1.042-3.05-2.046-6.051-8.143-24.254-16.325-48.557L644.78,623.394c-10.575-32.555-20.918-65.01-31.223-97.865l-15.206-49.157-15.245-49.057L554.392,327.9c-9.533-33.1-19.3-66.16-28.907-99.115l-7.449-24.7-3.86-12.3q-1.656-6.094-3.859-11.9c-3.293-7.076-9.071-11.586-15.438-12.052-6.6-.431-12.922,3.5-16.789,10.452Zm-1.7-1.55c4.2-7.875,11.172-12.492,18.559-12.291s14.2,5.194,18.144,13.291c1.891,4.251,2.972,8.2,4.477,12.252l4.168,12.052,8.375,24.154Q547.1,274.442,564.5,322.35l34.426,96.164,16.827,48.257L632.2,515.278c10.768,32.4,21.5,65.009,31.995,97.414l31.146,97.914,15.438,49.107,7.719,24.554,1.891,6.151.965,3.05.463,1.55c.193.5.386,1.4.579,2.1,3.571,12.24,1.946,26.007-4.284,36.305a35.315,35.315,0,0,1-11.231,11.552,24.467,24.467,0,0,1-14.2,3.6,25.259,25.259,0,0,1-13.855-5.9l-2.817-2.8-1.351-1.4-.965-1.15-3.859-4.5-7.372-8.951-15.013-18L407.231,518.478l-29.988-36.155-14.936-18.1-7.449-9L351,450.669a32.265,32.265,0,0,1-3.86-6.1,39.44,39.44,0,0,1-1.621-30,41.5,41.5,0,0,1,3.01-6.451l3.011-5.3,6.021-10.5,24.122-42.756Q430.041,263.941,476.393,176.728Z" transform="translate(-117.44 -108.086)" fill="#4dd4e2"/>
    <path id="Trazado_382" data-name="Trazado 382" d="M528.826,254.119q-58.355,74.111-115.05,150.472l-28.329,38.156-7.1,9.551-3.551,4.751a28.013,28.013,0,0,0-2.779,4.45,27.544,27.544,0,0,0,1,25.4l3.165,5,6.368,10.352,12.736,20.7L420.8,564.365,622.958,897.314l12.659,20.8,6.33,10.352,3.165,5,.81,1.3.54.7q.57.739,1.081,1.55a11.91,11.91,0,0,0,5.017,3.3,9.5,9.5,0,0,0,5.75-.35,14.107,14.107,0,0,0,5.133-3.8,18.425,18.425,0,0,0,2.933-6,20.885,20.885,0,0,0,0-7.3v-1.05l-.309-1.65-.579-3.2-1.2-6.451-4.67-25.554-9.456-51.508L631.835,730.239c-5.982-34.455-11.578-68.96-17.406-103.465l-8.259-51.858-7.719-51.958L583.63,418.743c-4.863-35.005-9.764-69.511-14.936-104.216l-3.859-25.954-1.968-13q-.844-6.371-2.2-12.6c-2.277-7.832-7.465-13.631-13.778-15.4C540.4,245.558,533.568,248.036,528.826,254.119Zm-1.466-1.9c5.158-6.771,12.594-9.739,19.8-7.9,7.3,1.853,13.39,8.336,16.21,17.253,1.273,4.6,1.814,8.8,2.74,13.1l2.47,12.852,4.94,25.654c6.715,34.255,13.7,68.41,20.725,102.515l20.8,102.515L625,569.565l9.61,51.508q9.263,51.532,18.216,103.215L670.159,827.8l8.414,51.858,4.207,25.9,1.042,6.451.5,3.251.27,1.6c0,.55.193,1.5.27,2.2,1.922,12.951-1.569,26.256-9.185,35.005a31.254,31.254,0,0,1-12.62,8.8c-9.645,3.408-19.964.117-27.286-8.7l-2.393-3.4-1.158-1.7-.772-1.35-3.087-5.251-6.136-10.6-12.312-21.1L412.657,572.916,388.188,530.46l-12.234-21.2-6.137-10.8-3.049-5.351a34.291,34.291,0,0,1-2.972-6.851,39.233,39.233,0,0,1,2.47-29.754,32.833,32.833,0,0,1,3.859-5.6l3.666-4.6,7.41-9.1,29.563-36.605Q469.854,327.479,527.36,252.219Z" transform="translate(-64.086 147.148)" fill="#4dd4e2"/>
    <path id="Trazado_386" data-name="Trazado 386" d="M661.7,431.27q-55-22.053-110.65-41.056l-27.788-9.552a46.317,46.317,0,0,0-6.561-1.951c-6.057-.941-12.038,2.4-15.669,8.752a20.528,20.528,0,0,0-1.505,3.2q-.7,1.855-1.235,3.8l-2.547,8.7-5.171,17.353-10.421,34.755L395.434,732.564l-5.249,17.352a27.881,27.881,0,0,0-.811,3.25,11.612,11.612,0,0,0-.386,2.75,9.762,9.762,0,0,0,0,2.6,11.177,11.177,0,0,0,.347,2.55,16.157,16.157,0,0,0,4.824,8.4,9.69,9.69,0,0,0,7.719,2.65,11.285,11.285,0,0,0,7.1-4.7l10.459-12.852,20.88-25.6q41.875-51.208,84.908-100.615c28.714-32.9,58.354-64.61,88.227-95.865q22.423-23.453,44.5-47.407l10.922-12.052a26.067,26.067,0,0,0,6.1-14.652,31.132,31.132,0,0,0-2.818-16.6A21.352,21.352,0,0,0,661.7,431.27Zm.579-2.55c4.923,1.792,9.209,5.753,12.119,11.2a35.7,35.7,0,0,1,3.859,18.9,34.1,34.1,0,0,1-6.406,18.053l-10.3,13.1q-20.455,26.254-40.524,53.108c-26.746,35.705-53.8,71.011-81.743,105.015s-56.309,67.51-84.908,100.365l-21.613,24.6-10.806,12.3-1.814,1.9-2.045,1.95a27.317,27.317,0,0,1-4.516,3.25,23.769,23.769,0,0,1-10.189,3.3c-14.244.976-27.052-11.168-30.644-29.054a35.075,35.075,0,0,1-.772-6.651,34.67,34.67,0,0,1,0-6.651,37.457,37.457,0,0,1,1.042-6.4q.657-2.8,1.544-5.5l5.673-17.152,90.426-274.191,11.578-34.205,5.789-17.052,2.895-8.551c.463-1.3,1.081-3.05,1.775-4.651a34.176,34.176,0,0,1,2.431-4.6c5.541-8.547,14.159-12.656,22.655-10.8a21.9,21.9,0,0,1,3.86,1.3l3.4,1.45,27.325,11.7q54.65,23.4,109.917,43.957Z" transform="translate(-35.941 598.89)" fill="#4dd4e2"/>
  </g>
</svg>
