<svg xmlns="http://www.w3.org/2000/svg" width="157.544" height="136.084" viewBox="0 0 157.544 136.084">
  <g id="Grupo_577" data-name="Grupo 577" transform="translate(60.764 -20.391) rotate(45)">
    <path id="Trazado_398" data-name="Trazado 398" d="M97.5,6.661c-.944.321-1.409.463-1.863.634-2.154.812-4.336,1.56-6.448,2.47-2.027.874-3.989,1.9-5.962,2.894-2.086,1.052-4.126,2.2-6.236,3.2-1.339.636-3.031-.409-3.533-2.079-.471-1.567.579-1.934,1.764-2.457,2.606-1.151,5.09-2.573,7.68-3.762,2.348-1.077,4.8-1.931,7.15-3A20.982,20.982,0,0,0,94.972,1.9C96.924.262,99.261.414,101.438.027c1.9-.338,4.02,2.539,3.959,4.515-.052,1.668.308,3.345.423,5.021.247,3.614.441,7.232.69,10.845a5.09,5.09,0,0,0,.4,1.694,15.027,15.027,0,0,1,1.019,7.744,2.5,2.5,0,0,1-3.02,2.477,2.019,2.019,0,0,1-1.229-1.292c-.668-2.754-1.283-5.529-1.743-8.324a13.563,13.563,0,0,1-.176-4.738c.552-2.749-.186-5.2-.819-7.726L100.3,10c-.926,1.546-1.763,3.154-2.8,4.626Q93.309,20.6,88.974,26.477C87.25,28.826,85.5,31.161,83.633,33.4c-1.532,1.839-2.938,4.291-4.952,5.1-3.111,1.256-3.985,4.239-6.215,6.1-5.021,4.179-8.53,9.919-14.077,13.636-2.656,1.78-4.635,4.7-7.421,6.126-3.9,2-6.355,5.721-10.2,7.583-1.929.933-4.182,1.225-6.061,2.231-2.576,1.381-5.941.52-8.069,3.009a8.29,8.29,0,0,1-1.294,1.147c-1.163.889-2.257,1.757-3.961,1.068a4.042,4.042,0,0,0-2.448.422,24.892,24.892,0,0,0-2.943,1.394c-.827.43-1.616.932-2.436,1.375a4.829,4.829,0,0,1-1.8.842c-2.14.088-4.286-.008-6.43,0a1.631,1.631,0,0,0-1.061.309c-1.319,1.329-2.543.378-3.755-.133A1.108,1.108,0,0,1,0,82.7c.035-.3.458-.8.693-.785,3.642.15,6.717-2.325,10.575-1.915,2.272.241,4.808-1.274,7.115-2.257q6.557-2.793,12.969-5.913c2.474-1.212,4.781-2.761,7.172-4.141,1.5-.864,3-1.719,4.523-2.541,5.086-2.749,9.221-6.781,13.428-10.584,7.272-6.572,13.976-13.769,21.115-20.5,3.015-2.842,5.1-6.336,7.714-9.44,1.75-2.075,3.681-4,5.41-6.09a30.771,30.771,0,0,0,2.4-3.712c1.144-1.881,2.278-3.771,3.365-5.685A24.075,24.075,0,0,0,97.5,6.661Z" transform="translate(28.837 0)" fill="#4dd4e2"/>
    <path id="Trazado_399" data-name="Trazado 399" d="M26.477,12.453l-4.322,3.716c-.209-1.691-.98-2.2-2.536-2.316A29.384,29.384,0,0,1,13.9,12.494,46.588,46.588,0,0,1,9.38,10.921,6.021,6.021,0,0,1,7.067,9.569C4.652,6.785,2.355,3.9.033,1.036-.051.933.047.683.1,0,7.273,8.15,15.876,12.655,26.477,12.453Z" transform="translate(0 69.765)" fill="#4dd4e2"/>
  </g>
</svg>
