<svg xmlns="http://www.w3.org/2000/svg" width="122.093" height="128.861" viewBox="0 0 122.093 128.861">
  <g id="Grupo_578" data-name="Grupo 578" transform="translate(17.521 133.24) rotate(-98)">
    <path id="Trazado_398" data-name="Trazado 398" d="M10.72,54.543c2.2-.139,4.395-.332,6.585-.536a30.786,30.786,0,0,0,4.388-.532c2.636-.637,5.21-1.529,7.844-2.2,3.938-.993,7.99-1.334,11.865-2.8,9.175-3.47,18.581-6.345,27.675-10,5.263-2.119,10.7-4.068,15.4-7.436,1.406-1.007,2.832-1.985,4.266-2.953,2.288-1.545,4.692-2.94,6.865-4.634q5.614-4.4,11-9.069c1.894-1.643,4.368-3.259,5.145-5.408,1.323-3.647,4.9-5.327,6.354-8.668.094-.216.726-.377,1.01-.279a1.106,1.106,0,0,1,.6.855c-.068,1.314.248,2.831-1.524,3.434a1.63,1.63,0,0,0-.742.818c-.945,1.924-1.8,3.9-2.816,5.781a4.834,4.834,0,0,1-1.544,1.246c-.759.544-1.556,1.034-2.3,1.589a25.006,25.006,0,0,0-2.542,2.035c-.6.58-1.4,1.308-1.453,2.016-.125,1.834-1.385,2.438-2.694,3.093a8.306,8.306,0,0,1-1.6.662c-3.17.823-3.87,4.225-6.239,5.936-1.728,1.248-2.976,3.145-4.66,4.471-3.36,2.648-7.785,3.227-11.287,5.855-2.5,1.878-5.994,2.379-8.759,3.988-5.769,3.358-12.467,4-18.423,6.683-2.644,1.193-5.709.671-8.2,2.918-1.612,1.454-4.432,1.645-6.757,2.216-2.827.7-5.7,1.249-8.562,1.77q-7.181,1.327-14.387,2.476c-1.775.283-3.588.331-5.382.487l-.066.683c1.991,1.674,3.874,3.413,6.588,4.12A13.574,13.574,0,0,1,20.541,65.4c2.311,1.639,4.537,3.407,6.72,5.213a2.02,2.02,0,0,1,.625,1.672,2.5,2.5,0,0,1-3.549,1.63A15.037,15.037,0,0,1,17.822,69.6a5.1,5.1,0,0,0-1.348-1.1c-3.141-1.807-6.308-3.566-9.448-5.37A50.02,50.02,0,0,0,2.7,60.556c-1.8-.813-3.458-3.981-2.324-5.539,1.3-1.788,2.189-3.955,4.519-4.991a21,21,0,0,0,4.546-3.255c1.987-1.646,3.828-3.475,5.825-5.115,2.2-1.807,4.571-3.417,6.746-5.256.989-.836,1.778-1.619,2.982-.51,1.282,1.183,1.479,3.162.322,4.087-1.824,1.459-3.749,2.79-5.608,4.206-1.759,1.338-3.541,2.652-5.214,4.092-1.743,1.5-3.371,3.135-5.044,4.715-.352.333-.683.688-1.385,1.4A24.069,24.069,0,0,0,10.72,54.543Z" transform="translate(0 31.463)" fill="#4bcbdb"/>
    <path id="Trazado_399" data-name="Trazado 399" d="M.362,0c.634.255.9.277.959.4,1.555,3.34,3.143,6.67,4.589,10.06a6.026,6.026,0,0,1,.2,2.671,46.776,46.776,0,0,1-.564,4.751,29.412,29.412,0,0,1-1.284,5.738c-.574,1.453-.458,2.366.97,3.3L0,29.169C4.825,19.727,4.543,10.02.362,0Z" transform="translate(119.725 0)" fill="#4bcbdb"/>
  </g>
</svg>
