<svg xmlns="http://www.w3.org/2000/svg" width="115.802" height="141.692" viewBox="0 0 115.802 141.692">
  <path id="Trazado_445" data-name="Trazado 445" d="M3904.4,651.82c5.754,0,10.6-.529,15.271.149s9.173,2.565,13.223,3.767c.979,1.866,1.753,3.342,2.781,5.3a7.008,7.008,0,0,0,.478-1.622c-.1-2.335.912-2.408,2.809-1.7,3.256,1.215,6.416,2.145,9.033,4.922,2.921,3.1,7.177,4.942,10.071,8.057A48.483,48.483,0,0,1,3969.79,690.8c1.006,3.654,2.512,7.188,2.224,11.118-.042.557.541,1.261,1,1.737,1.927,2,1.877,3.333-.265,5-.661.516-1.289,1.074-1.45,1.21a28.83,28.83,0,0,1,1.835,4.043c1.806,6.753-.683,12.711-3.72,18.488-1.129,2.149-3.712,3.587-3.08,6.564-3.312,1.658-3.453,6.385-7.3,7.551a1.218,1.218,0,0,0-.612.771c-.67,2.434-2.058,2.59-3.912,1.053-.373,3.453-1.5,4.346-4.947,4.5-.713.031-1.424.691-2.09,1.13-1.147.757-2.26,1.568-3.387,2.356l-.706-.876a11.364,11.364,0,0,1,2.037-1.928c4.3-2.42,7.321-6.234,10.888-9.449,3.92-3.534,5.446-7.914,7.957-12.047,2.858-4.7,5.153-9.392,5.172-14.772a123.666,123.666,0,0,0-1.4-15.222,46.65,46.65,0,0,0-1.635-8.1c-.471-1.524-1.753-2.786-2.59-4.214a60.112,60.112,0,0,1-3.92-7.077c-.854-2.051-1.074-4.361-1.626-6.544-.1-.394-.382-.966-.69-1.05-4.506-1.231-7.683-4.534-11.136-7.3-6.081-4.874-13.379-6.724-20.555-8.974-1.587-.5-3.1-1.229-4.656-1.825a3.354,3.354,0,0,0-1.275-.287c-3.776.148-7.55.349-11.325.5-1.04.042-2.085-.038-3.129-.049s-2.084,0-3.8,0a13.583,13.583,0,0,0,1.371,1.65q9.378,6.975,18.788,13.905c1.771,1.3,1.919,2.819,1.058,4.654-1.294,2.753-2.6,2.905-4.767.8a49.563,49.563,0,0,0-4.2-3.185c-3.812-2.974-7.6-5.981-11.416-8.947a15.588,15.588,0,0,0-1.61-.847,44.615,44.615,0,0,1-6.11-3.735c-3.194-2.652-2.425-5.7-2.118-8.857.045-.456.7-.937,1.166-1.253,2.984-2.008,5.96-4.031,9.012-5.931,2.089-1.3,4.347-2.33,6.431-3.639a11.378,11.378,0,0,0,2.9-2.606,16.885,16.885,0,0,1,6.444-4.752,3.424,3.424,0,0,1,5,2.667,2.134,2.134,0,0,1-.734,1.447c-2.148,2.055-4.256,4.17-6.566,6.03a51.341,51.341,0,0,1-5.654,3.632C3908.819,649.287,3906.887,650.372,3904.4,651.82Z" transform="matrix(0.951, -0.309, 0.309, 0.951, -3897.803, 625.206)" fill="#565656"/>
</svg>
