<svg xmlns="http://www.w3.org/2000/svg" width="77.652" height="70.557" viewBox="0 0 77.652 70.557">
  <path id="Trazado_453" data-name="Trazado 453" d="M3624.09,485.209c-4.575-.393-8.884-.551-13.117-1.2a16.472,16.472,0,0,0-8.571.885c-1.823.662-4.369-.673-6.593-1.1a7.285,7.285,0,0,0-2.31-.374c-3.16.483-6.456,1.963-9.4,1.426s-5.342,1.051-8.139.543c-1.916-.349-3.772-.263-5.107-1.969a1.475,1.475,0,0,0-1.063-.526c-2.594.154-5.184.382-7.755.585-.7-2.937-.418-3.141,2.261-3.041,3.286.123,6.588-.17,9.875-.059,2.9.1,5.787.686,8.684.717,2.29.025,4.579-.572,6.879-.7,2.722-.153,5.457-.051,8.184-.144q12.279-.414,24.556-.9a5.984,5.984,0,0,0,1.181-.3c-4.831-3.158-9.515-6.158-14.125-9.266a34.25,34.25,0,0,1-4.6-3.774,2.23,2.23,0,0,1-.444-2.081,2.6,2.6,0,0,1,2.152-.946,23.715,23.715,0,0,1,11.4,6.351c2.782,2.663,5.353,5.259,9.452,5.925,2.552.415,3.9,5.342,3.076,7.754-1.233,3.62-3.958,5.856-6.593,8.169a66.159,66.159,0,0,1-7.282,5.282,3.092,3.092,0,0,1-2.547.493c-1.858-1.1-2.809-.028-4.11.988a21.782,21.782,0,0,1-4.025,2.028c-1.847-1.422-1.708-2.11.36-3.127,3.975-1.955,7.79-4.253,11.591-6.541a68.153,68.153,0,0,0,5.578-3.99C3623.809,486.094,3623.889,485.62,3624.09,485.209Z" transform="matrix(-0.809, 0.588, -0.588, -0.809, 3231.248, -1689.042)" fill="#565656"/>
</svg>
