<svg xmlns="http://www.w3.org/2000/svg" xmlns:xlink="http://www.w3.org/1999/xlink" width="86.049" height="46.097" viewBox="0 0 86.049 46.097">
  <defs>
    <clipPath id="clip-path">
      <rect width="86.049" height="46.097" fill="none"/>
    </clipPath>
  </defs>
  <g id="Componente_501_1" data-name="Componente 501 – 1" clip-path="url(#clip-path)">
    <path id="Trazado_403" data-name="Trazado 403" d="M3639.4,490.672c-5.7-.489-11.064-.686-16.336-1.493a20.515,20.515,0,0,0-10.674,1.1c-2.271.824-5.441-.838-8.211-1.376a9.07,9.07,0,0,0-2.877-.466c-3.936.6-8.041,2.445-11.708,1.776-3.651-.666-6.653,1.309-10.136.676-2.386-.435-4.7-.328-6.36-2.452a1.835,1.835,0,0,0-1.324-.655c-3.231.192-6.457.476-9.658.729-.873-3.658-.521-3.912,2.816-3.787,4.093.153,8.2-.212,12.3-.073,3.612.122,7.208.854,10.815.893,2.852.031,5.7-.712,8.567-.873,3.39-.19,6.8-.064,10.192-.179q15.292-.516,30.583-1.127a7.452,7.452,0,0,0,1.471-.379c-6.017-3.933-11.85-7.669-17.591-11.54a42.689,42.689,0,0,1-5.733-4.7,2.778,2.778,0,0,1-.553-2.592,3.235,3.235,0,0,1,2.68-1.178,29.534,29.534,0,0,1,14.194,7.91c3.465,3.317,6.667,6.55,11.771,7.379,3.179.517,4.855,6.653,3.831,9.657-1.536,4.508-4.929,7.293-8.21,10.174a82.462,82.462,0,0,1-9.069,6.578c-.86.568-2.465,1.035-3.172.614-2.314-1.374-3.5-.035-5.119,1.23a27.122,27.122,0,0,1-5.013,2.526c-2.3-1.771-2.127-2.628.449-3.894,4.95-2.435,9.7-5.3,14.435-8.146a84.939,84.939,0,0,0,6.947-4.969C3639.05,491.774,3639.149,491.184,3639.4,490.672Z" transform="translate(3647.756 509.045) rotate(180)" fill="#4dd4e2"/>
  </g>
</svg>
