<svg xmlns="http://www.w3.org/2000/svg" width="136.824" height="123.805" viewBox="0 0 136.824 123.805">
  <path id="Trazado_437" data-name="Trazado 437" d="M3640.19,315c1.12.676,1.892,1.208,2.72,1.629,2.638,1.343,5.638,2.229,7.869,4.059a63.14,63.14,0,0,1,9.383,9.507,20.44,20.44,0,0,1,4.038,12.328,21.734,21.734,0,0,1-5.021,14.432c-1.3,1.584-2.207,3.479-3.4,5.16-1.415,2-3.548,2.943-5.622,4.186-4.114,2.467-8.636,3.31-13.037,4.495-11.493,3.1-24.587-1.367-28.277-14.781-3.422-12.437.1-23.411,9.362-32.4,2.826-2.743,5.961-5.167,9.463-8.174-5.442,0-10.284-.484-14.966.17-3.138.438-3.3-2.322-5.119-3.081.291-.5.469-1.268.9-1.45a7.389,7.389,0,0,1,2.677-.5c5.331-.129,10.663-.244,15.995-.25a4.147,4.147,0,0,1,2.795.866c1.853,2.006,3.455.966,5.3.086,6.191-2.954,12.24-6.389,18.712-8.522,6.45-2.126,12.779-5.283,19.948-4.783,1.4.1,2.847-.879,4.309-1.054,5.813-.7,11.627-1.51,17.465-1.819,5.635-.3,11.3-.029,16.952-.019a2.182,2.182,0,0,0,1.544-.6c-3.382-2.115-6.817-4.15-10.132-6.365q-6.094-4.071-12.009-8.41c-1.49-1.1-1.726-3.815-.509-4.674,1.565-1.1,2.909-.187,4.191.857,2.211,1.8,4.412,3.625,6.745,5.257,4.329,3.029,8.817,5.833,13.093,8.932,1.357.983,2.021,2.955,3.4,3.865,3.823,2.516,5.229,4.673,3.44,8.322-1.129,2.3-3.556,4.1-5.688,5.748-4.928,3.821-10.61,6.34-16.273,8.868-3.383,1.509-5.609,1.318-6.954-.433,1.866-1.792,3.683-3.539,5.5-5.281.239-.229.489-.594.76-.621,4.5-.435,6.944-4.626,10.964-6.028,1.14-.4,1.847-2.041,2.752-3.113-1.292-.63-2.557-1.721-3.883-1.8a77.991,77.991,0,0,0-10.7.083c-6.679.513-13.374,1.031-20,1.993-5.831.848-11.609,2.16-17.34,3.554a47.567,47.567,0,0,0-8.362,3.12c-3.849,1.753-7.588,3.746-11.369,5.646C3641.4,314.225,3641.008,314.5,3640.19,315Zm19.9,23.567c.562-3.084-1.377-4.771-3.574-6.465a37.964,37.964,0,0,1-4.009-4.024c-.393-.411-.6-1.068-1.061-1.337-4.141-2.442-8.258-4.937-12.506-7.185-3.128-1.655-6.231-1.931-9.188.823-2.528,2.353-5.466,4.26-8.061,6.547-4.039,3.56-7.339,7.824-8.072,13.232-.751,5.529-2.383,11.032.729,16.729,3.476,6.365,8.755,9.2,15.423,10.177a42.49,42.49,0,0,0,6.973.006,4.265,4.265,0,0,0,1.154-.4,34.871,34.871,0,0,0,11.95-7.427C3656.075,353.7,3659.983,347.145,3660.09,338.571Z" transform="matrix(-0.966, 0.259, -0.259, -0.966, 3692.521, -574.634)" fill="#565656"/>
</svg>
