<svg xmlns="http://www.w3.org/2000/svg" width="192.774" height="71.655" viewBox="0 0 192.774 71.655">
  <path id="Trazado_441" data-name="Trazado 441" d="M3796.037,746.12c1.06-3.29,3.927-5.051,6.838-6.775a14.963,14.963,0,0,0,1.744-1.184c3.635-2.915,7.105-5.919,11.648-7.638,2.659-1.006,4.743-3.531,6.89-5.219-7.8.207-15.623.453-23.445.557-.751.01-1.514-.866-2.271-1.331.545-.792.93-2.049,1.661-2.3a29.083,29.083,0,0,1,14.961-1.425c3.3.611,6.5.966,9.606-.924,2.659-1.616,4.28.966,6.185,2.011,1.3.712,1.546,1.973,1.121,3.661-.5,1.994-.008,4.223-.379,6.272-.428,2.368-1.374,4.64-2.013,6.976-.55,2.013-.8,4.126-1.54,6.061a4.894,4.894,0,0,1-2.366,2.654,3.839,3.839,0,0,0-2.507,2.981,15.61,15.61,0,0,1-2.438,4.214,1.544,1.544,0,0,1-1.459.243,1.933,1.933,0,0,1-.432-1.655c2.591-5.6,5.406-11.111,7.853-16.777.9-2.081.976-4.516,1.569-7.5l-14.942,8.892-2.467-1.642-.435.52c.473.6.946,1.2,1.6,2.04-2.045,1.465-2.7,4.46-5.845,4.546-.285.008-.571.319-.84.512-4.232,3.018-8.4,6.134-12.712,9.028-2.8,1.878-5.813,3.435-8.734,5.129-.41.238-1.2.426-1.207.664-.15,3.281-1.959,2.308-3.643,1.453-2.8,4.43-6.113,7.841-11.621,8.632-1.445.207-2.615,1.99-4.023,2.87a40.267,40.267,0,0,1-7.085,3.979c-1.957.723-4.106.865-5.684,2.47-.274.278-.761.354-1.017.642-1.906,2.151-4.041,1.676-5.04-1.239-2.991-8.726-7.517-16.69-12.165-24.589-.82-1.394-2.066-2.534-2.936-3.905-.543-.855-.577-2.042-1.142-2.875-1.581-2.334-3.284-4.59-5.074-6.766-.121-.148-1.428.519-2.06.978-2.686,1.952-5.187,4.2-8.012,5.91-4.655,2.824-9.6,5.171-14.239,8.018-2.2,1.35-3.931,3.447-5.963,5.1a24.244,24.244,0,0,1-4.548,3.138c-2.291,1.107-4.929,1.565-7.095,2.847-2.083,1.233-3.71,3.218-5.62,4.77q-3.364,2.733-6.89,5.266a11.182,11.182,0,0,1-2.308.9c-.6.248-1.5.4-1.714.862-1.8,3.763-5.921,4.3-8.846,6.475a2.967,2.967,0,0,1-2.344.564c-2.6-1.006-3.955.786-5.631,2.088-1.279.993-2.739,1.751-4.108,2.629-.924.593-1.83,1.215-3.153,2.1l-1.332-1.841c.18-.383.207-.6.324-.67,6.108-3.79,12.14-7.714,18.363-11.308a188.629,188.629,0,0,0,19.088-12.9c3.145-2.37,6.813-4.034,10.131-6.192,1.976-1.285,3.673-2.992,5.6-4.366,4.4-3.139,8.794-6.3,13.32-9.249,5.073-3.308,10.312-6.362,15.432-9.6,1.884-1.191,2.965-.785,3.9,1.2,1.218,2.595,2.666,5.082,3.889,7.38.985.631,2.162,1.006,2.726,1.811,2.272,3.245,4.144,6.784,6.552,9.916,4.831,6.289,7.573,13.677,11.5,21.129,2.139-1.567,4.133-3.082,6.186-4.513,1.29-.9,2.66-1.685,4.012-2.493.561-.335,1.45-.442,1.706-.914,1.636-3.02,4.938-3.364,7.48-4.93,2.509-1.546,4.743-3.529,7.154-5.241,2.815-2,5.7-3.9,8.537-5.872.726-.505,1.669-.976,2.017-1.7C3788.338,746.425,3792.276,746.66,3796.037,746.12Z" transform="translate(-3638.392 -719.361)" fill="#505c64"/>
</svg>
