<svg xmlns="http://www.w3.org/2000/svg" width="102.92" height="111.312" viewBox="0 0 102.92 111.312">
    <path id="Trazado_446" data-name="Trazado 446" d="M3876.268,740.968l-1.584.757a2.958,2.958,0,0,0,.666.409,38.165,38.165,0,0,1,4.7,1.117c3.91,1.481,7.7,3.3,11.641,4.676,8.157,2.853,16.513,1.759,24.824,1.205l.283-.749c-2.649-1.484-5.292-2.981-7.95-4.448-3.977-2.194-8.033-4.258-11.918-6.6a2.94,2.94,0,0,1-.864-4.4c1.138-1.394,2.725-.8,4.155.355a42.617,42.617,0,0,0,5.706,3.816c4.02,2.285,8.124,4.425,12.178,6.653a7.579,7.579,0,0,1,1.322,1.077c.927.836,1.7,1.973,2.779,2.484,3.889,1.849,5.078,6.446,2.159,9.683a39.635,39.635,0,0,1-14.32,10.445,21.56,21.56,0,0,0-4.881,2.273c-1.96,1.485-3.125.139-4.494-.43,1.771-2.111,3.17-4.363,5.113-5.95,2.565-2.094,5.618-3.579,8.341-5.5a41.043,41.043,0,0,0,3.99-3.638q-.273-.461-.545-.922c-2.389.434-4.762.985-7.167,1.281-10.846,1.338-21.181.107-30.388-6.38-5.834-4.111-11.673-8.216-17.44-12.42a12.084,12.084,0,0,1-5.238-7.612,7.422,7.422,0,0,0-1.063-2.233c-1.126-1.922-2.172-3.7-1.858-6.224.193-1.548-.959-3.263-1.506-4.9-1.11-3.331-2.655-6.592-3.2-10.012s-.1-6.974-.01-10.5a16.974,16.974,0,0,1-.054-3.621c.521-2.675,2.335-5.013,1.6-8.065-.263-1.086,7.457-7.655,3.162,4.176-2.355,6.487-1.94,12.959-.658,19.144a69.3,69.3,0,0,0,7.713,20.636c3.421,5.935,8.589,9.67,13.795,13.566C3875.563,740.355,3875.852,740.62,3876.268,740.968Z" transform="matrix(0.94, -0.342, 0.342, 0.94, -3849.795, 703.961)" fill="#565656"/>
</svg>
