<svg id="Capa_1" data-name="Capa 1" xmlns="http://www.w3.org/2000/svg" viewBox="0 0 780.6 273.29"><title>logo_texto</title><path d="M347.87,375.05h1.64l11.15,26.4h-2l-3.68-8.7h-12.6l-3.68,8.7h-2.05Zm6.58,16.14-5.76-13.83-5.88,13.83Z" transform="translate(-31.29 -181.47)" fill="#fff"/><path d="M361.88,388.06a14.11,14.11,0,0,1,.84-4.74,13.12,13.12,0,0,1,2.44-4.21,12.45,12.45,0,0,1,3.92-3,11.6,11.6,0,0,1,5.29-1.17,10.81,10.81,0,0,1,6,1.61,10.12,10.12,0,0,1,3.71,4.15l-1.56.89a8.47,8.47,0,0,0-3.7-3.81,9.48,9.48,0,0,0-2.28-.84,11.26,11.26,0,0,0-2.34-.26,9.38,9.38,0,0,0-4.46,1,10.79,10.79,0,0,0-3.28,2.66,11.67,11.67,0,0,0-2,3.7,13,13,0,0,0-.69,4.15,12.21,12.21,0,0,0,.82,4.46,12.37,12.37,0,0,0,2.23,3.73,11,11,0,0,0,3.34,2.59,9.25,9.25,0,0,0,4.17,1,10.58,10.58,0,0,0,2.45-.3,9.36,9.36,0,0,0,2.42-.92,10,10,0,0,0,2.15-1.62,8.79,8.79,0,0,0,1.68-2.32l1.63.78a8.72,8.72,0,0,1-1.82,2.64,11.71,11.71,0,0,1-2.56,1.93,12.3,12.3,0,0,1-3,1.17,12.91,12.91,0,0,1-3.1.39,10.47,10.47,0,0,1-5-1.19,13.19,13.19,0,0,1-3.89-3.1A14.34,14.34,0,0,1,362.8,393,14.06,14.06,0,0,1,361.88,388.06Z" transform="translate(-31.29 -181.47)" fill="#fff"/><path d="M397.27,375.05h1.64l11.15,26.4h-2l-3.68-8.7h-12.6l-3.68,8.7h-2Zm6.58,16.14-5.76-13.83-5.87,13.83Z" transform="translate(-31.29 -181.47)" fill="#fff"/><path d="M414.07,401.45v-26.4h8.78a13.53,13.53,0,0,1,5.48,1,11.14,11.14,0,0,1,3.92,2.83,11.82,11.82,0,0,1,2.34,4.18,16.42,16.42,0,0,1,.78,5.11,16.1,16.1,0,0,1-.87,5.45,11.7,11.7,0,0,1-2.51,4.16,11.2,11.2,0,0,1-4,2.68,13.62,13.62,0,0,1-5.18.95Zm19.41-13.24a14.34,14.34,0,0,0-.71-4.59,10.31,10.31,0,0,0-2.06-3.62,9.35,9.35,0,0,0-3.33-2.38,11.26,11.26,0,0,0-4.53-.86H416v23h6.88a11.22,11.22,0,0,0,4.59-.88,9.14,9.14,0,0,0,3.32-2.43,10.54,10.54,0,0,0,2-3.66A14.53,14.53,0,0,0,433.48,388.21Z" transform="translate(-31.29 -181.47)" fill="#fff"/><path d="M458.16,399.74v1.71H440.58v-26.4h17.25v1.71H442.47v10.38h13.42v1.63H442.47v11Z" transform="translate(-31.29 -181.47)" fill="#fff"/><path d="M487.23,401.45V378.62l-10.41,17.81h-1.19l-10.41-17.81v22.83h-1.89v-26.4h1.89l11,18.89,11-18.89h1.9v26.4Z" transform="translate(-31.29 -181.47)" fill="#fff"/><path d="M496,401.45v-26.4h1.89v26.4Z" transform="translate(-31.29 -181.47)" fill="#fff"/><path d="M513.14,375.05h1.63l11.16,26.4h-2l-3.68-8.7h-12.6l-3.68,8.7h-2Zm6.58,16.14L514,377.36l-5.88,13.83Z" transform="translate(-31.29 -181.47)" fill="#fff"/><path d="M538.34,401.45v-26.4h8.77a13.58,13.58,0,0,1,5.49,1,11.14,11.14,0,0,1,3.92,2.83,11.82,11.82,0,0,1,2.34,4.18,16.42,16.42,0,0,1,.78,5.11,16.1,16.1,0,0,1-.87,5.45,11.85,11.85,0,0,1-2.51,4.16,11.2,11.2,0,0,1-4,2.68,13.67,13.67,0,0,1-5.19.95Zm19.4-13.24a14.34,14.34,0,0,0-.7-4.59A10.31,10.31,0,0,0,555,380a9.44,9.44,0,0,0-3.33-2.38,11.31,11.31,0,0,0-4.54-.86h-6.87v23h6.87a11.15,11.15,0,0,0,4.59-.88,9.09,9.09,0,0,0,3.33-2.43,10.7,10.7,0,0,0,2-3.66A14.53,14.53,0,0,0,557.74,388.21Z" transform="translate(-31.29 -181.47)" fill="#fff"/><path d="M582.43,399.74v1.71H564.84v-26.4h17.25v1.71H566.74v10.38h13.42v1.63H566.74v11Z" transform="translate(-31.29 -181.47)" fill="#fff"/><path d="M597.15,401.45v-26.4h17.17v1.71H599v10.49h13v1.63H599v12.57Z" transform="translate(-31.29 -181.47)" fill="#fff"/><path d="M629.15,401.63a10.93,10.93,0,0,1-5-1.15,13,13,0,0,1-3.9-3,13.51,13.51,0,0,1-2.53-4.28,14.23,14.23,0,0,1-.89-4.94,13.82,13.82,0,0,1,1-5.06,14.14,14.14,0,0,1,2.6-4.27,12.57,12.57,0,0,1,3.92-3,11.14,11.14,0,0,1,4.91-1.09,10.93,10.93,0,0,1,5,1.17,12.62,12.62,0,0,1,3.9,3.07,14.16,14.16,0,0,1,2.51,4.29,13.9,13.9,0,0,1,.89,4.85,13.66,13.66,0,0,1-.95,5.09,14,14,0,0,1-2.6,4.26,12.51,12.51,0,0,1-3.92,2.94A11.14,11.14,0,0,1,629.15,401.63Zm-10.44-13.38a12.68,12.68,0,0,0,.76,4.37,11.87,11.87,0,0,0,2.16,3.72,10.65,10.65,0,0,0,3.32,2.58,9.4,9.4,0,0,0,4.24,1,9.05,9.05,0,0,0,4.29-1,10.3,10.3,0,0,0,3.27-2.66,12.11,12.11,0,0,0,2.1-3.73,12.5,12.5,0,0,0,0-8.61,12.12,12.12,0,0,0-2.18-3.72,10.89,10.89,0,0,0-3.29-2.58,9.06,9.06,0,0,0-4.16-1,9.19,9.19,0,0,0-4.31,1,10.57,10.57,0,0,0-3.31,2.66,12.16,12.16,0,0,0-2.12,3.73A12.42,12.42,0,0,0,618.71,388.25Z" transform="translate(-31.29 -181.47)" fill="#fff"/><path d="M646.62,401.45v-26.4h11a6.8,6.8,0,0,1,3.08.71,7.78,7.78,0,0,1,2.44,1.88,9.1,9.1,0,0,1,1.6,2.64,8.09,8.09,0,0,1,.57,3,8.88,8.88,0,0,1-.44,2.81,8.27,8.27,0,0,1-1.27,2.43,7,7,0,0,1-2,1.79,6.9,6.9,0,0,1-2.52.93l6.58,10.26h-2.2l-6.39-10h-8.55v10Zm1.9-11.71h9.26a4.8,4.8,0,0,0,2.3-.56,5.74,5.74,0,0,0,1.78-1.47,6.47,6.47,0,0,0,1.14-2.08,7.54,7.54,0,0,0,.39-2.4,6.53,6.53,0,0,0-.47-2.43,7,7,0,0,0-1.26-2.07,6.34,6.34,0,0,0-1.86-1.43,5,5,0,0,0-2.29-.54h-9Z" transform="translate(-31.29 -181.47)" fill="#fff"/><path d="M694.65,401.45V378.62l-10.41,17.81h-1.19l-10.41-17.81v22.83h-1.89v-26.4h1.89l11,18.89,11-18.89h1.9v26.4Z" transform="translate(-31.29 -181.47)" fill="#fff"/><path d="M711.75,375.05h1.63l11.16,26.4h-2l-3.68-8.7h-12.6l-3.68,8.7h-2.05Zm6.58,16.14-5.76-13.83-5.88,13.83Z" transform="translate(-31.29 -181.47)" fill="#fff"/><path d="M725.76,388.06a14.11,14.11,0,0,1,.84-4.74,13.28,13.28,0,0,1,2.43-4.21,12.61,12.61,0,0,1,3.93-3,11.57,11.57,0,0,1,5.29-1.17,10.78,10.78,0,0,1,6,1.61,10.22,10.22,0,0,1,3.72,4.15l-1.56.89a8.47,8.47,0,0,0-3.7-3.81,9.48,9.48,0,0,0-2.28-.84,11.28,11.28,0,0,0-2.35-.26,9.43,9.43,0,0,0-4.46,1,10.63,10.63,0,0,0-3.27,2.66,11.67,11.67,0,0,0-2,3.7,13,13,0,0,0-.69,4.15,12.5,12.5,0,0,0,3.05,8.19,10.85,10.85,0,0,0,3.34,2.59,9.25,9.25,0,0,0,4.17,1,10.58,10.58,0,0,0,2.45-.3,9.36,9.36,0,0,0,2.42-.92,10.2,10.2,0,0,0,2.15-1.62,8.54,8.54,0,0,0,1.67-2.32l1.64.78a8.9,8.9,0,0,1-1.82,2.64,11.77,11.77,0,0,1-2.57,1.93,12.23,12.23,0,0,1-3,1.17,12.91,12.91,0,0,1-3.1.39,10.51,10.51,0,0,1-5-1.19,13.28,13.28,0,0,1-3.88-3.1,14.57,14.57,0,0,1-2.55-4.35A14.27,14.27,0,0,1,725.76,388.06Z" transform="translate(-31.29 -181.47)" fill="#fff"/><path d="M753.23,401.45v-26.4h1.9v26.4Z" transform="translate(-31.29 -181.47)" fill="#fff"/><path d="M772.56,401.63a10.93,10.93,0,0,1-5-1.15,13,13,0,0,1-3.9-3,13.51,13.51,0,0,1-2.53-4.28,14.23,14.23,0,0,1-.89-4.94,13.82,13.82,0,0,1,.95-5.06,14.14,14.14,0,0,1,2.6-4.27,12.57,12.57,0,0,1,3.92-3,11.14,11.14,0,0,1,4.91-1.09,10.93,10.93,0,0,1,5,1.17,12.62,12.62,0,0,1,3.9,3.07,14.16,14.16,0,0,1,2.51,4.29,13.9,13.9,0,0,1,.89,4.85,13.66,13.66,0,0,1-1,5.09,14,14,0,0,1-2.6,4.26,12.51,12.51,0,0,1-3.92,2.94A11.14,11.14,0,0,1,772.56,401.63Zm-10.44-13.38a12.68,12.68,0,0,0,.76,4.37,11.87,11.87,0,0,0,2.16,3.72,10.65,10.65,0,0,0,3.32,2.58,9.4,9.4,0,0,0,4.24,1,9.05,9.05,0,0,0,4.29-1,10.3,10.3,0,0,0,3.27-2.66,12.34,12.34,0,0,0,2.11-3.73,12.66,12.66,0,0,0,.74-4.24,12.46,12.46,0,0,0-.78-4.37,12.12,12.12,0,0,0-2.18-3.72,10.89,10.89,0,0,0-3.29-2.58,9.06,9.06,0,0,0-4.16-1,9.19,9.19,0,0,0-4.31,1,10.57,10.57,0,0,0-3.31,2.66,12.16,12.16,0,0,0-2.12,3.73A12.66,12.66,0,0,0,762.12,388.25Zm10.44-17.14-1.3-.59,2.27-3.16h2.16Z" transform="translate(-31.29 -181.47)" fill="#fff"/><path d="M791.93,378.62v22.83H790v-26.4h1.45L810,398.29V375.05h1.89v26.4h-1.75Z" transform="translate(-31.29 -181.47)" fill="#fff"/><path d="M339.58,446.05V419.66h8.77a13.58,13.58,0,0,1,5.49,1,11.14,11.14,0,0,1,3.92,2.83,11.82,11.82,0,0,1,2.34,4.18,16.42,16.42,0,0,1,.78,5.11,16.14,16.14,0,0,1-.87,5.45,11.85,11.85,0,0,1-2.51,4.16,11.33,11.33,0,0,1-4,2.68,13.67,13.67,0,0,1-5.19.94ZM359,432.82a14.34,14.34,0,0,0-.7-4.59,10.31,10.31,0,0,0-2.06-3.62,9.44,9.44,0,0,0-3.33-2.38,11.31,11.31,0,0,0-4.54-.86h-6.87v23h6.87a11.32,11.32,0,0,0,4.59-.87,9.09,9.09,0,0,0,3.33-2.43,10.84,10.84,0,0,0,2-3.67A14.47,14.47,0,0,0,359,432.82Z" transform="translate(-31.29 -181.47)" fill="#fff"/><path d="M383.67,444.34v1.71H366.08V419.66h17.25v1.71H368v10.37H381.4v1.64H368v11Z" transform="translate(-31.29 -181.47)" fill="#fff"/><path d="M388.83,446.05V419.66h10.86a6.8,6.8,0,0,1,3.08.71,7.75,7.75,0,0,1,2.44,1.87,9.37,9.37,0,0,1,1.6,2.64,8.14,8.14,0,0,1,.57,3,9,9,0,0,1-.54,3.08,8.22,8.22,0,0,1-1.52,2.64A7.32,7.32,0,0,1,403,435.4a6.7,6.7,0,0,1-3,.69h-9.18v10Zm1.9-11.71h9.11a5.16,5.16,0,0,0,2.34-.53,5.5,5.5,0,0,0,1.76-1.45,6.67,6.67,0,0,0,1.12-2.09,7.63,7.63,0,0,0,.39-2.43,6.61,6.61,0,0,0-.46-2.47,7,7,0,0,0-1.27-2.07,6.11,6.11,0,0,0-1.86-1.41,5.09,5.09,0,0,0-2.25-.52h-8.88Z" transform="translate(-31.29 -181.47)" fill="#fff"/><path d="M422.44,446.24a10.88,10.88,0,0,1-5-1.15,13,13,0,0,1-3.9-3A13.43,13.43,0,0,1,411,437.8a14,14,0,0,1-.89-4.94,13.77,13.77,0,0,1,.94-5.06,14.16,14.16,0,0,1,2.61-4.27,12.42,12.42,0,0,1,3.92-3,11.13,11.13,0,0,1,4.9-1.09,10.88,10.88,0,0,1,5,1.17,12.5,12.5,0,0,1,3.9,3.06,14.13,14.13,0,0,1,2.51,4.3,13.65,13.65,0,0,1,.9,4.85,14.07,14.07,0,0,1-3.55,9.35,12.68,12.68,0,0,1-3.93,2.93A11.1,11.1,0,0,1,422.44,446.24ZM412,432.86a12.82,12.82,0,0,0,.76,4.36,11.76,11.76,0,0,0,2.16,3.72,10.69,10.69,0,0,0,3.33,2.59,9.38,9.38,0,0,0,4.23,1,9.12,9.12,0,0,0,4.3-1,10.67,10.67,0,0,0,3.27-2.66,12.66,12.66,0,0,0,2.1-3.73,12.57,12.57,0,0,0,0-8.61,12.09,12.09,0,0,0-2.17-3.72,10.7,10.7,0,0,0-3.29-2.58,9.11,9.11,0,0,0-4.17-1,9.22,9.22,0,0,0-4.31,1,10.54,10.54,0,0,0-3.31,2.65,12.76,12.76,0,0,0-2.86,8Z" transform="translate(-31.29 -181.47)" fill="#fff"/><path d="M439.91,446.05V419.66h11a6.81,6.81,0,0,1,3.09.71,7.83,7.83,0,0,1,2.43,1.87,8.93,8.93,0,0,1,1.6,2.64,8,8,0,0,1,.58,3,8.89,8.89,0,0,1-.45,2.81,8.25,8.25,0,0,1-1.26,2.43,7.12,7.12,0,0,1-2,1.78,6.77,6.77,0,0,1-2.53.93l6.58,10.26h-2.19l-6.4-10H441.8v10Zm1.89-11.71h9.26a4.79,4.79,0,0,0,2.3-.55,5.78,5.78,0,0,0,1.79-1.47,6.65,6.65,0,0,0,1.13-2.08,7.54,7.54,0,0,0,.39-2.4,6.61,6.61,0,0,0-.46-2.44,6.78,6.78,0,0,0-1.27-2.06,6.43,6.43,0,0,0-1.85-1.43,5,5,0,0,0-2.29-.54h-9Z" transform="translate(-31.29 -181.47)" fill="#fff"/><path d="M482.06,421.37H472.4v24.68h-1.9V421.37h-9.66v-1.71h21.22Z" transform="translate(-31.29 -181.47)" fill="#fff"/><path d="M486.15,446.05V419.66h1.9v26.39Z" transform="translate(-31.29 -181.47)" fill="#fff"/><path d="M494.07,419.66l10,24,10-24h2L505,446.05h-1.75l-11.19-26.39Z" transform="translate(-31.29 -181.47)" fill="#fff"/><path d="M526.22,419.66h1.64L539,446.05h-2l-3.68-8.69h-12.6L517,446.05h-2Zm6.58,16.13L527,422l-5.87,13.82Z" transform="translate(-31.29 -181.47)" fill="#fff"/><path d="M363.31,238.7a27.42,27.42,0,0,1,27.37,27.37v2.52h-9.94v-2.52a17.47,17.47,0,0,0-34.93,0v54.81a17.47,17.47,0,1,0,34.93,0v-2.45h9.94v2.45a27.41,27.41,0,1,1-54.81,0V266.07a27.42,27.42,0,0,1,27.44-27.37Z" transform="translate(-31.29 -181.47)" fill="#fff"/><path d="M436.16,238.7l24.92,109.62H450.91l-5.73-24.92h-31l-5.65,24.92H398.32L423.24,238.7Zm-19.72,74.76H443l-13.23-58.25Z" transform="translate(-31.29 -181.47)" fill="#fff"/><path d="M496.17,248.64a17.48,17.48,0,0,0-17.51,17.43v5a17.48,17.48,0,0,0,17.51,17.5,27.4,27.4,0,0,1,27.36,27.37v5a27.4,27.4,0,1,1-54.8,0v-7.42h9.93v7.42a17.47,17.47,0,1,0,34.94,0v-5a17.5,17.5,0,0,0-17.43-17.43A27.4,27.4,0,0,1,468.73,271v-5a27.4,27.4,0,0,1,54.8,0v7.49H513.6v-7.49a17.5,17.5,0,0,0-17.43-17.43Z" transform="translate(-31.29 -181.47)" fill="#fff"/><path d="M564.73,238.7a27.42,27.42,0,0,1,27.37,27.37v54.81a27.41,27.41,0,1,1-54.81,0V266.07a27.42,27.42,0,0,1,27.44-27.37Zm17.43,27.37a17.47,17.47,0,0,0-34.93,0v54.81a17.47,17.47,0,1,0,34.93,0Z" transform="translate(-31.29 -181.47)" fill="#fff"/><path d="M632.69,301H615.8v47.32h-9.94V238.7h28.66a27.42,27.42,0,0,1,27.37,27.37v7.49a26.66,26.66,0,0,1-5.28,16.2,27.21,27.21,0,0,1-13.6,9.87l22.93,48.69h-11ZM615.8,291h18.72A17.48,17.48,0,0,0,652,273.56v-7.49a17.48,17.48,0,0,0-17.43-17.43H615.8Z" transform="translate(-31.29 -181.47)" fill="#fff"/><path d="M111.79,203.7c-3.56,5-7.1,10.06-10.59,15.14L90.83,234.13l-5.13,7.68-1.28,1.92-.64,1a4,4,0,0,0-.49.87,3.91,3.91,0,0,0,.39,3.62,4.14,4.14,0,0,0,.62.7l.86.76,1.74,1.52,3.47,3.05,6.94,6.09,55.23,49.09,3.45,3.06,1.73,1.53.86.77.22.19.15.1.28.21a2.78,2.78,0,0,0,1.22.37,3,3,0,0,0,1.26-.28,3.31,3.31,0,0,0,1-.86,3,3,0,0,0,.47-1.15,2.83,2.83,0,0,0-.19-1.26,4.13,4.13,0,0,0-.18-.44l-.23-.53-.46-1.06-1.84-4.24-3.69-8.46-7.26-17q-3.57-8.5-7.06-17.07c-2.29-5.71-4.58-11.43-6.78-17.18L129,229.8l-6.53-17.29-1.68-4.3-.84-2.15a19.13,19.13,0,0,0-.88-2.08,4.32,4.32,0,0,0-3.54-2.1A4.41,4.41,0,0,0,111.79,203.7Zm-.39-.27a5,5,0,0,1,8.3.18c.42.74.67,1.43,1,2.13l1,2.11,1.89,4.21,7.76,16.77,7.79,16.77c2.56,5.6,5,11.23,7.51,16.88s4.86,11.31,7.24,17l7,17.08,3.46,8.56,1.73,4.28.43,1.07.22.54a6.59,6.59,0,0,1,.23.63,6.53,6.53,0,0,1-1,6.34,7.35,7.35,0,0,1-2.53,2,6.8,6.8,0,0,1-3.22.62,6.67,6.67,0,0,1-3.12-1l-.64-.49-.31-.25-.21-.19-.85-.79-1.69-1.57L150,313.16,95.75,263,89,256.72l-3.37-3.15L83.94,252l-.84-.79a6,6,0,0,1-.88-1.06,5.49,5.49,0,0,1-.36-5.21,7,7,0,0,1,.67-1.11l.69-.94L84.58,241,90,233.56l10.8-15Q106.17,211.06,111.4,203.43Z" transform="translate(-31.29 -181.47)" fill="#35bbd8"/><path d="M175.91,301.52c-1.51,6-3,11.94-4.45,17.92l-4.19,18-2,9-.51,2.25-.25,1.13a4.53,4.53,0,0,0-.14,1,3.88,3.88,0,0,0,1.67,3.24,3.82,3.82,0,0,0,.82.44l1.08.4,2.17.79,4.33,1.6,8.67,3.19,69.16,26,4.32,1.62,2.17.81,1.08.4.27.1.17,0,.34.1a2.51,2.51,0,0,0,2.35-.81,3.3,3.3,0,0,0,.65-1.17,3.11,3.11,0,0,0,0-1.25,2.93,2.93,0,0,0-.63-1.1,4.28,4.28,0,0,0-.33-.35l-.4-.41-.81-.82-3.24-3.29-6.48-6.59-12.87-13.24q-6.41-6.66-12.72-13.4c-4.19-4.51-8.38-9-12.5-13.61l-12.28-13.8-12.31-13.8-3.11-3.41-1.55-1.71a18.71,18.71,0,0,0-1.57-1.62,4.33,4.33,0,0,0-4-.69A4.41,4.41,0,0,0,175.91,301.52Zm-.45-.11a5,5,0,0,1,7.8-2.82c.67.54,1.15,1.09,1.71,1.63l1.64,1.63,3.28,3.25L203.16,318l13.28,12.85c4.4,4.31,8.74,8.68,13.07,13.06s8.6,8.81,12.86,13.26l12.69,13.41,6.31,6.75,3.15,3.38.79.84.39.42c.13.14.26.27.45.51a6.55,6.55,0,0,1,1.37,6.26,7.29,7.29,0,0,1-1.64,2.79,6.84,6.84,0,0,1-2.78,1.74,6.69,6.69,0,0,1-3.29.16l-.77-.22-.38-.12-.26-.11-1.08-.43-2.14-.85L250.89,390l-68.65-27.3-8.57-3.47-4.28-1.73-2.14-.87-1.07-.43a5.82,5.82,0,0,1-1.19-.68,5.44,5.44,0,0,1-2.21-4.72,5.59,5.59,0,0,1,.23-1.29l.3-1.11.6-2.23,2.41-8.92,4.7-17.87C172.55,313.37,174,307.39,175.46,301.41Z" transform="translate(-31.29 -181.47)" fill="#35bbd8"/><path d="M135.31,272.3c-4.38,4.32-8.76,8.65-13.09,13l-12.9,13.22-6.41,6.65-1.6,1.67-.8.83a4.27,4.27,0,0,0-.63.77,3.89,3.89,0,0,0-.26,3.64,3.66,3.66,0,0,0,.49.8l.71.9,1.44,1.8,2.88,3.61,5.76,7.22,45.68,58.07,2.87,3.62,1.43,1.82.71.9.18.23.13.12.24.26a2.54,2.54,0,0,0,2.43.52,3.18,3.18,0,0,0,1.16-.66,2.89,2.89,0,0,0,.67-1.05,2.84,2.84,0,0,0,0-1.27,3.09,3.09,0,0,0-.1-.47l-.13-.56-.27-1.12-1.06-4.49-2.14-9-4.14-18c-1.35-6-2.65-12-3.94-18.05s-2.49-12.06-3.64-18.11L147.66,301l-3.38-18.18-.89-4.53-.45-2.26a18.77,18.77,0,0,0-.5-2.2,4.32,4.32,0,0,0-3.11-2.69A4.38,4.38,0,0,0,135.31,272.3ZM135,272a5,5,0,0,1,8.14,1.64c.29.8.41,1.53.61,2.28l.56,2.24,1.12,4.48,4.69,17.88,4.7,17.87c1.53,6,3,12,4.41,17.94s2.79,12,4.12,18l3.92,18.05,1.89,9,1,4.52.23,1.13.12.56c0,.19.08.37.12.67a6.48,6.48,0,0,1-2.07,6.06,7.41,7.41,0,0,1-2.85,1.54,6.82,6.82,0,0,1-3.27.05,6.72,6.72,0,0,1-2.9-1.57l-.54-.59-.26-.3-.18-.23-.69-.92-1.39-1.84-2.78-3.69-44.58-58.92-5.53-7.4-2.76-3.7-1.38-1.85-.69-.93a5.7,5.7,0,0,1-.68-1.2,5.49,5.49,0,0,1,.56-5.18,6.55,6.55,0,0,1,.87-1l.83-.79,1.67-1.6,6.68-6.37L121.9,285Q128.49,278.53,135,272Z" transform="translate(-31.29 -181.47)" fill="#35bbd8"/><path d="M106.1,217.52c.4,6.14.81,12.28,1.28,18.42l1.55,18.41.84,9.2.21,2.3.11,1.15a4.64,4.64,0,0,0,.17,1,3.84,3.84,0,0,0,2.58,2.57,3.62,3.62,0,0,0,.92.16l1.15.05,2.3.09,4.62.19,9.23.37,73.8,3.45,4.62.2,2.3.11,1.16.05h.82a2.5,2.5,0,0,0,2-1.5,3.33,3.33,0,0,0,.26-1.31,2.91,2.91,0,0,0-.36-1.19,2.68,2.68,0,0,0-.94-.85,2.26,2.26,0,0,0-.42-.24l-.51-.27-1-.53-4.1-2.13-8.19-4.27-16.32-8.65c-5.43-2.91-10.83-5.87-16.22-8.83s-10.75-6-16.08-9.1L135.9,227l-16-9.34-4-2.29-2-1.14a20.3,20.3,0,0,0-2-1.06,4.31,4.31,0,0,0-4.07.59A4.38,4.38,0,0,0,106.1,217.52Zm-.47,0a5,5,0,0,1,6.56-5.08c.8.31,1.43.69,2.13,1l2.06,1,4.12,2.08,16.58,8.16,16.6,8.14c5.51,2.75,11,5.57,16.45,8.41S181,247.07,186.44,250l16.21,8.85,8.08,4.49,4,2.24,1,.56.5.28c.16.09.33.18.58.34a6.52,6.52,0,0,1,3.23,5.54,7.29,7.29,0,0,1-.7,3.16,6.88,6.88,0,0,1-2.11,2.51,6.75,6.75,0,0,1-3.08,1.16l-.8,0H213l-.28,0-1.16-.08-2.3-.15-4.61-.31-73.72-4.85-9.22-.67-4.6-.33-2.3-.17-1.16-.08a5.48,5.48,0,0,1-4.9-4.09,6.15,6.15,0,0,1-.18-1.3l0-1.15-.12-2.31-.45-9.22-1-18.45C106.54,229.83,106.09,223.69,105.63,217.55Z" transform="translate(-31.29 -181.47)" fill="#35bbd8"/><path d="M127,226.73q-11.59-8.74-23.5-17.06l-5.95-4.16-1.48-1a4.2,4.2,0,0,0-1.4-.58,3.92,3.92,0,0,0-2.86.54,6.06,6.06,0,0,0-.59.47l-.67.61-1.33,1.23-2.68,2.46-5.34,4.91L38.11,253.06l-1.35,1.21-.66.61c-.12.15-.26.28-.38.42a2.58,2.58,0,0,0-.47,1.95A2.79,2.79,0,0,0,36.32,259a2.41,2.41,0,0,0,1.86.5,4.56,4.56,0,0,1,.53-.13l.86-.28,1.73-.57,3.45-1.13,6.9-2.25,13.83-4.39q6.94-2.15,13.9-4.19c4.66-1.34,9.31-2.66,14-3.9l14.08-3.62c4.7-1.18,9.39-2.38,14.07-3.63l3.5-1a6.46,6.46,0,0,0,1.6-.59,3.77,3.77,0,0,0,1.23-1.09,4.19,4.19,0,0,0,.71-1.51,4.14,4.14,0,0,0,.1-1.68A4.35,4.35,0,0,0,127,226.73Zm.27-.38a4.93,4.93,0,0,1,2,3.17,5.1,5.1,0,0,1-.81,3.69,5.07,5.07,0,0,1-1.4,1.37,7,7,0,0,1-1.75.79l-3.43,1.18c-4.57,1.59-9.13,3.25-13.67,4.91L94.52,246.4c-4.57,1.61-9.16,3.14-13.76,4.66s-9.22,2.94-13.84,4.36L53,259.59l-7,2-3.49,1-1.74.51-.87.25-1.24.26a6.52,6.52,0,0,1-4.92-1.47,6.77,6.77,0,0,1-2.43-4.37,6.47,6.47,0,0,1,1.35-4.87c.27-.31.57-.61.86-.9l.7-.6,1.37-1.18,44-37.88,5.54-4.69L88,205.33l1.39-1.17.69-.59a7,7,0,0,1,.86-.62,5.45,5.45,0,0,1,6,.34l1.44,1.12,5.72,4.47Q115.52,217.82,127.26,226.35Z" transform="translate(-31.29 -181.47)" fill="#35bbd8"/><path d="M156.26,215.6c2.24-3.09,4.32-6.29,6.27-9.58a4,4,0,0,0-.16-4.62,4.51,4.51,0,0,0-.86-.82l-1.12-.89-2.22-1.81-8.78-7.35L145,186.85l-1.09-.92c-.21-.18-.29-.19-.44-.31l-.19-.13-.2-.08a2.56,2.56,0,0,0-1.65-.19,2.8,2.8,0,0,0-2.16,2.28,2.85,2.85,0,0,0,.31,1.54l1.24,2.58q2.48,5.16,4.54,10.5a113.54,113.54,0,0,1,3.52,10.95l.4,1.38.17.56c.09.17.17.35.27.52a3.77,3.77,0,0,0,1.84,1.5A4.07,4.07,0,0,0,156.26,215.6Zm.38.26a5.29,5.29,0,0,1-5.37,2.29,5.51,5.51,0,0,1-2.91-1.49,7.16,7.16,0,0,1-.57-.65l-.47-.71-.74-1.25A113.49,113.49,0,0,1,141.07,204c-1.63-3.46-3.13-7-4.5-10.53l-1-2.68a7.1,7.1,0,0,1-.36-4,6.76,6.76,0,0,1,5.61-5.18,6.22,6.22,0,0,1,3.89.71l.44.23.38.29c.23.19.56.43.7.58l1,1,4.15,3.94,8.31,7.87,2.06,2,1,1a6.12,6.12,0,0,1,1,1.3,5.34,5.34,0,0,1-.5,6.13C161,209.57,158.72,212.66,156.64,215.86Z" transform="translate(-31.29 -181.47)" fill="#35bbd8"/><path d="M171.69,391.17q-12.42-3.84-25-7.16l-6.29-1.66a10.68,10.68,0,0,0-1.48-.35,3.82,3.82,0,0,0-1.35.09,3.9,3.9,0,0,0-2.19,1.43,4.73,4.73,0,0,0-.35.56c-.09.2-.17.39-.28.67l-.58,1.51-1.17,3-2.34,6.06-19.14,48.36-1.19,3a3.78,3.78,0,0,0-.18.57,1.63,1.63,0,0,0-.09.48,1.41,1.41,0,0,0,0,.46,1.26,1.26,0,0,0,.08.43,2.72,2.72,0,0,0,1.09,1.47,2.57,2.57,0,0,0,1.74.47,2.71,2.71,0,0,0,1.6-.83l2.36-2.23,4.72-4.47,9.53-8.85c3.19-2.93,6.43-5.82,9.67-8.69s6.53-5.7,9.87-8.47l10.07-8.26q5.06-4.1,10.05-8.26l2.47-2.11a4,4,0,0,0,1.37-2.55,4.34,4.34,0,0,0-.63-2.89A4.43,4.43,0,0,0,171.69,391.17Zm.14-.45a5,5,0,0,1,3.59,5.26,5.12,5.12,0,0,1-1.45,3.14l-2.33,2.29q-4.62,4.59-9.15,9.26l-9.14,9.27C150.28,423,147.15,426,144,429s-6.33,5.91-9.54,8.83l-9.68,8.67-4.88,4.29-2.45,2.15a7,7,0,0,1-4.19,1.81,6.77,6.77,0,0,1-6.92-5.07,4.53,4.53,0,0,1-.18-1.16,5,5,0,0,1,0-1.16,5.09,5.09,0,0,1,.23-1.11,10.13,10.13,0,0,1,.35-1l1.28-3,20.44-47.83,2.61-6,1.31-3,.65-1.49c.1-.23.24-.53.39-.82a6.19,6.19,0,0,1,.55-.79,5.46,5.46,0,0,1,3.24-1.89,5.4,5.4,0,0,1,1.88,0,12.85,12.85,0,0,1,1.66.48l6.18,2C155.21,385.78,163.49,388.35,171.83,390.72Z" transform="translate(-31.29 -181.47)" fill="#35bbd8"/></svg>