<svg id="Capa_1" data-name="Capa 1" xmlns="http://www.w3.org/2000/svg" viewBox="0 0 271.17 313.36"><title>Sin título-7</title><path d="M378.23,167.2q-12.27,17.27-24,34.88l-5.88,8.81-1.47,2.2-.74,1.1a5.57,5.57,0,0,0-.55,1,4.45,4.45,0,0,0,.44,4.16,4.52,4.52,0,0,0,.71.8l1,.87,2,1.75,4,3.49,8,7L425,289.52l4,3.51,2,1.76,1,.88.24.22.17.11.33.25a3.15,3.15,0,0,0,1.4.42,3.22,3.22,0,0,0,1.44-.33,3.62,3.62,0,0,0,1.18-1,3.27,3.27,0,0,0,.54-1.32,3.21,3.21,0,0,0-.22-1.44c0-.07,0-.1-.07-.21l-.13-.3-.27-.61-.53-1.21-2.11-4.85-4.23-9.71-8.32-19.48c-2.74-6.51-5.42-13-8.09-19.57l-3.94-9.83L405.44,217,398,197.12c-2.47-6.62-5-13.23-7.49-19.82l-1.93-4.94-1-2.46a21.83,21.83,0,0,0-1-2.38,5,5,0,0,0-4-2.41A5.05,5.05,0,0,0,378.23,167.2Zm-.44-.31a5.7,5.7,0,0,1,9.51.2c.49.85.77,1.64,1.16,2.45l1.08,2.41,2.17,4.83q4.4,9.65,8.91,19.23l8.92,19.23,4.36,9.65,4.26,9.7c2.79,6.48,5.57,13,8.29,19.48l8.07,19.58,4,9.82,2,4.91.49,1.23.25.61.12.31c.05.1.1.28.15.42a7.48,7.48,0,0,1-1.11,7.26,8.36,8.36,0,0,1-2.91,2.31,7.85,7.85,0,0,1-3.68.72,7.65,7.65,0,0,1-3.59-1.18l-.73-.56-.35-.28-.25-.23-1-.9L426,296.3l-3.89-3.6-62.24-57.47L352.1,228l-3.87-3.62-1.93-1.8-1-.91a6.5,6.5,0,0,1-1-1.22,6.26,6.26,0,0,1-.42-6,7.61,7.61,0,0,1,.78-1.29l.78-1.06L347,210l6.25-8.55Q365.78,184.33,377.79,166.89Z" transform="translate(-285.93 -141.7)" fill="#30bad6"/><path d="M451.75,279.35q-5.25,20.52-9.9,41.19l-2.33,10.33-.58,2.58-.3,1.29a5.34,5.34,0,0,0-.15,1.14,4.44,4.44,0,0,0,1.9,3.71,4.55,4.55,0,0,0,.95.5l1.24.46,2.48.91,5,1.83L460,347l79.3,29.81,5,1.85,2.48.93L548,380l.31.12.2.05.39.11a3.06,3.06,0,0,0,1.45-.11,3.24,3.24,0,0,0,1.24-.82,4,4,0,0,0,.75-1.34,3.45,3.45,0,0,0,0-1.43,3,3,0,0,0-.72-1.26,1.53,1.53,0,0,0-.14-.17l-.23-.24-.46-.47-.93-.94-3.72-3.77-7.43-7.55L523.92,347q-7.33-7.64-14.58-15.36l-7.2-7.77L495,316,480.93,300.2q-7-7.95-14.11-15.82l-3.57-3.91-1.78-2a22.82,22.82,0,0,0-1.79-1.86,5,5,0,0,0-4.65-.79A5,5,0,0,0,451.75,279.35Zm-.52-.12a5.7,5.7,0,0,1,8.95-3.23c.76.61,1.31,1.25,2,1.87l1.88,1.86,3.76,3.73q7.56,7.43,15.21,14.75L498.22,313l7.53,7.45,7.46,7.52C518.14,333,523.07,338,528,343.13l14.56,15.38,7.23,7.74,3.61,3.87.9,1,.46.48.22.24.28.34a7.48,7.48,0,0,1,1.58,7.18,8.37,8.37,0,0,1-1.89,3.2,7.48,7.48,0,0,1-6.95,2.18l-.88-.26-.43-.14-.31-.12-1.23-.49-2.46-1-4.92-2L459,349.45l-9.81-4-4.91-2-2.45-1-1.24-.5a6.52,6.52,0,0,1-1.36-.77,6.31,6.31,0,0,1-2.54-5.42,7.12,7.12,0,0,1,.27-1.47l.34-1.28.69-2.56,2.77-10.22Q446.28,299.81,451.23,279.23Z" transform="translate(-285.93 -141.7)" fill="#30bad6"/><path d="M405.2,245.85q-15.12,14.82-29.81,30.09l-7.34,7.63-1.84,1.91-.92.95a5.62,5.62,0,0,0-.72.89,4.42,4.42,0,0,0,.26,5.08l.82,1,1.65,2.07,3.3,4.14,6.61,8.28,52.38,66.58,3.28,4.16,1.64,2.07.82,1,.21.26.14.14a4.12,4.12,0,0,1,.28.31,3.28,3.28,0,0,0,1.3.66,3.15,3.15,0,0,0,1.49-.07,3.75,3.75,0,0,0,1.33-.76,3.43,3.43,0,0,0,.76-1.2,3.24,3.24,0,0,0,0-1.46c0-.07,0-.1,0-.21l-.08-.33-.15-.64-.31-1.29L439.09,372l-2.45-10.3-4.75-20.64c-1.55-6.89-3-13.79-4.51-20.69L425.24,310l-2-10.39-3.84-20.84c-1.26-7-2.53-13.9-3.87-20.84l-1-5.19-.51-2.6a24.63,24.63,0,0,0-.57-2.52,4.93,4.93,0,0,0-3.57-3.08A5,5,0,0,0,405.2,245.85Zm-.38-.38a5.67,5.67,0,0,1,5.13-1.58,5.73,5.73,0,0,1,4.2,3.45c.33.92.47,1.76.71,2.62l.64,2.57,1.28,5.13c1.74,6.85,3.55,13.68,5.37,20.5l5.39,20.5,2.58,10.27,2.49,10.3c1.6,6.87,3.19,13.75,4.72,20.64l4.49,20.7L444,370.94l1.09,5.18.27,1.29.13.65.07.32c0,.11.05.3.07.44a7.47,7.47,0,0,1-2.38,7,8.46,8.46,0,0,1-3.27,1.76,7.49,7.49,0,0,1-7.07-1.74l-.62-.68-.3-.34-.2-.27-.8-1.05-1.59-2.12-3.19-4.22-51.11-67.56-6.34-8.49-3.17-4.24L364,294.71l-.79-1.07a6.17,6.17,0,0,1-.77-1.37,6.25,6.25,0,0,1,.64-5.95,6.82,6.82,0,0,1,1-1.12l.95-.92,1.92-1.82,7.66-7.32Q389.92,260.52,404.82,245.47Z" transform="translate(-285.93 -141.7)" fill="#30bad6"/><path d="M371.7,183Q373,204.18,375,225.27l1,10.55.24,2.64.12,1.31a5.22,5.22,0,0,0,.19,1.13,4.46,4.46,0,0,0,3,2.95,4.8,4.8,0,0,0,1.06.18l1.32.05,2.64.11,5.29.21,10.58.43L485,248.78l5.29.24,2.64.12,1.32.06.33,0,.21,0h.41a3.12,3.12,0,0,0,1.35-.55,3.24,3.24,0,0,0,.92-1.17,3.76,3.76,0,0,0,.3-1.5,3.43,3.43,0,0,0-.42-1.37,3.09,3.09,0,0,0-1.07-1l-.19-.12-.29-.15-.59-.3-1.17-.62-4.7-2.44-9.39-4.89-18.71-9.92q-9.33-5-18.6-10.13l-9.24-5.17-9.2-5.26-18.27-10.73q-9.12-5.4-18.29-10.71l-4.6-2.62-2.3-1.31a22.19,22.19,0,0,0-2.28-1.22,5,5,0,0,0-4.67.68A5,5,0,0,0,371.7,183Zm-.53,0a5.7,5.7,0,0,1,7.52-5.83c.91.35,1.63.79,2.44,1.18l2.36,1.19,4.73,2.39c6.31,3.17,12.66,6.27,19,9.36l19,9.33,9.46,4.78,9.4,4.86q9.38,4.92,18.71,9.93l18.58,10.16,9.26,5.13,4.63,2.57,1.16.65.58.32.29.16.37.23a7.51,7.51,0,0,1,3.71,6.35,8.37,8.37,0,0,1-.81,3.63,7.93,7.93,0,0,1-2.41,2.87,7.83,7.83,0,0,1-3.54,1.34l-.91,0h-.46l-.33,0-1.32-.09-2.64-.17-5.28-.36-84.54-5.56-10.56-.76-5.28-.38-2.64-.19-1.33-.1a6.79,6.79,0,0,1-1.54-.31,6.3,6.3,0,0,1-4.08-4.38,7.28,7.28,0,0,1-.2-1.48l-.06-1.33-.13-2.64-.52-10.58Q372.79,204.2,371.17,183.08Z" transform="translate(-285.93 -141.7)" fill="#30bad6"/><path d="M395.65,193.6q-13.27-10-26.94-19.56l-6.82-4.76-1.7-1.18a4.43,4.43,0,0,0-4.88,0,5.36,5.36,0,0,0-.67.53l-.77.71-1.53,1.41-3.07,2.81-6.13,5.63-49.4,44.65-1.54,1.4-.76.69c-.14.17-.29.32-.43.48a2.9,2.9,0,0,0-.54,2.23,3.14,3.14,0,0,0,1.23,2,2.77,2.77,0,0,0,2.13.57,3.88,3.88,0,0,1,.61-.15l1-.32,2-.65,4-1.29,7.91-2.59,15.87-5c5.3-1.64,10.61-3.22,15.93-4.79l8-2.29,8-2.19,16.14-4.14q8.08-2,16.13-4.17l4-1.1a7.46,7.46,0,0,0,1.83-.67,4.36,4.36,0,0,0,1.41-1.26,4.76,4.76,0,0,0,.82-1.73,4.65,4.65,0,0,0,.11-1.93A5,5,0,0,0,395.65,193.6Zm.32-.43a5.61,5.61,0,0,1,2.28,3.63,5.44,5.44,0,0,1-.06,2.2,5.51,5.51,0,0,1-.87,2,6,6,0,0,1-1.6,1.57,8.25,8.25,0,0,1-2,.89l-3.93,1.36q-7.86,2.74-15.68,5.64l-15.67,5.66-7.88,2.71-7.9,2.62q-7.92,2.55-15.87,5l-15.95,4.78-8,2.32-4,1.15-2,.58-1,.29c-.46.11-1,.21-1.43.3a7.47,7.47,0,0,1-5.64-1.68,7.73,7.73,0,0,1-2.78-5,7.42,7.42,0,0,1,1.54-5.59c.32-.36.66-.69,1-1l.8-.68,1.58-1.36,50.46-43.44,6.35-5.37,3.18-2.69,1.59-1.35.79-.67a8.34,8.34,0,0,1,1-.71,6.28,6.28,0,0,1,4.73-.66,6.16,6.16,0,0,1,2.17,1l1.65,1.28,6.56,5.13Q382.51,183.39,396,193.17Z" transform="translate(-285.93 -141.7)" fill="#30bad6"/><path d="M429.22,180.84c2.57-3.55,4.95-7.22,7.18-11a4.59,4.59,0,0,0-.18-5.29,4.65,4.65,0,0,0-1-.94l-1.28-1-2.55-2.07-10.09-8.4-5-4.23-1.25-1.06a2.91,2.91,0,0,0-.27-.2l-.23-.15-.21-.15-.24-.1a2.86,2.86,0,0,0-1.88-.22,3.21,3.21,0,0,0-2.48,2.61,3.11,3.11,0,0,0,.36,1.76l1.42,3q2.82,5.92,5.2,12a126.59,126.59,0,0,1,4,12.55l.45,1.59.21.64a5.46,5.46,0,0,0,.3.59,4.43,4.43,0,0,0,2.11,1.73A4.68,4.68,0,0,0,429.22,180.84Zm.44.3a6.06,6.06,0,0,1-6.16,2.62,6.27,6.27,0,0,1-3.34-1.7c-.23-.24-.44-.49-.66-.74l-.53-.83-.84-1.42a128.91,128.91,0,0,1-6.33-11.57q-2.81-5.94-5.15-12.07l-1.17-3.07a8.21,8.21,0,0,1-.4-4.65,7.73,7.73,0,0,1,6.42-5.93,7.23,7.23,0,0,1,4.48.8l.49.27.45.33.43.34a4.77,4.77,0,0,1,.37.32l1.19,1.12,4.78,4.5,9.5,9.06,2.35,2.29,1.17,1.16a7.18,7.18,0,0,1,1.2,1.49,6.19,6.19,0,0,1,.81,3.69,6.08,6.08,0,0,1-1.39,3.34C434.61,173.93,432,177.47,429.66,181.14Z" transform="translate(-285.93 -141.7)" fill="#30bad6"/><path d="M446.92,382.15q-14.25-4.41-28.67-8.21l-7.2-1.91a14.78,14.78,0,0,0-1.7-.39,4.4,4.4,0,0,0-4.06,1.75,3.77,3.77,0,0,0-.39.64,7.61,7.61,0,0,0-.32.76l-.66,1.74L402.58,380l-2.7,6.95L377.93,442.4l-1.36,3.47a4.57,4.57,0,0,0-.21.65,1.83,1.83,0,0,0-.1.55,1.51,1.51,0,0,0,0,.52,1.76,1.76,0,0,0,.09.51,3.17,3.17,0,0,0,1.25,1.68,3,3,0,0,0,2,.53,3.09,3.09,0,0,0,1.84-.94l2.71-2.57,5.41-5.12q10.85-10.24,22-20.12c7.44-6.58,15.12-12.92,22.86-19.17q5.81-4.69,11.53-9.48l2.83-2.41a4.69,4.69,0,0,0,1.58-2.93,5,5,0,0,0-.73-3.32A5.1,5.1,0,0,0,446.92,382.15Zm.15-.51a5.69,5.69,0,0,1,3.14,2.24,5.8,5.8,0,0,1,1,3.78,5.93,5.93,0,0,1-1.66,3.61l-2.67,2.62q-5.3,5.25-10.5,10.62c-6.93,7.14-13.94,14.2-21.18,21s-14.59,13.5-22,20.07l-5.6,4.92-2.8,2.46-.47.38-.53.39a7.33,7.33,0,0,1-1.17.65,7.49,7.49,0,0,1-2.64.66,7.78,7.78,0,0,1-7.94-5.81,5.49,5.49,0,0,1-.2-1.33,5.36,5.36,0,0,1,0-1.33,5.94,5.94,0,0,1,.27-1.28,10.82,10.82,0,0,1,.4-1.1l1.47-3.43,23.43-54.83,3-6.84,1.5-3.41.75-1.71c.12-.26.28-.61.46-.93a6.5,6.5,0,0,1,.63-.92,6.3,6.3,0,0,1,5.87-2.16,6.89,6.89,0,0,1,1,.26l.88.29,7.08,2.34Q432.75,377.53,447.07,381.64Z" transform="translate(-285.93 -141.7)" fill="#30bad6"/></svg>