<svg xmlns="http://www.w3.org/2000/svg" id="prefix__user_3_" width="7.965" height="9.547"  viewBox="0 0 7.965 9.547">
	<defs>
		<style>
			.prefix__cls-1{fill:#565656}
		</style>
	</defs>
	<path id="prefix__Trazado_5" d="M89.331 4.6a2.225 2.225 0 0 0 1.626-.674A2.225 2.225 0 0 0 91.63 2.3a2.225 2.225 0 0 0-.673-1.626 2.3 2.3 0 0 0-3.252 0 2.225 2.225 0 0 0-.674 1.626 2.225 2.225 0 0 0 .669 1.625 2.225 2.225 0 0 0 1.631.675zm0 0" class="prefix__cls-1" data-name="Trazado 5" transform="translate(-85.408)"/>
	<path id="prefix__Trazado_6" d="M7.946 250.046a5.678 5.678 0 0 0-.077-.6 4.752 4.752 0 0 0-.148-.607 3 3 0 0 0-.249-.566 2.135 2.135 0 0 0-.376-.49 1.658 1.658 0 0 0-.54-.339 1.866 1.866 0 0 0-.689-.125.7.7 0 0 0-.374.158l-.389.251a2.231 2.231 0 0 1-.5.222 1.956 1.956 0 0 1-1.232 0 2.226 2.226 0 0 1-.5-.222l-.39-.251a.7.7 0 0 0-.374-.158 1.864 1.864 0 0 0-.689.125 1.656 1.656 0 0 0-.54.339 2.135 2.135 0 0 0-.376.49 3 3 0 0 0-.249.566 4.763 4.763 0 0 0-.148.606 5.659 5.659 0 0 0-.077.6c-.013.183-.019.372-.019.564a1.585 1.585 0 0 0 .471 1.2 1.7 1.7 0 0 0 1.213.443h4.6a1.7 1.7 0 0 0 1.213-.443 1.585 1.585 0 0 0 .471-1.2c-.013-.191-.02-.381-.032-.563zm0 0" class="prefix__cls-1" data-name="Trazado 6" transform="translate(0 -242.705)"/>
</svg>
